<?xml version="1.0" encoding="utf-8"?>
<!-- Generator: Adobe Illustrator 27.5.0, SVG Export Plug-In . SVG Version: 6.00 Build 0)  -->
<svg version="1.1" id="Layer_1" xmlns="http://www.w3.org/2000/svg" xmlns:xlink="http://www.w3.org/1999/xlink" x="0px" y="0px"
	 viewBox="0 0 600 420" style="enable-background:new 0 0 600 420;" xml:space="preserve">
<g>
	<path style="fill:#E0F9FE;" d="M46.611,320.984c0,0-8.821-57.655,32.769-78.621c41.59-20.965,11.343-75.089,31.509-98.903
		c20.165-23.814,63.015-36.804,128.552,12.99c65.535,49.794,93.263-15.155,95.783-28.144c2.52-12.99,36.548-68.195,98.305-43.299
		c61.757,24.897-6.299,100.669,31.51,121.237c37.81,20.566,114.69,30.308,80.659,114.74H46.611z"/>
	<g>
		
			<rect x="236.793" y="177.776" transform="matrix(0.7017 -0.7124 0.7124 0.7017 -107.368 248.4767)" style="fill:#F4C43D;" width="12.571" height="149.39"/>
		
			<rect x="281.779" y="297.081" transform="matrix(0.7019 -0.7123 0.7123 0.7019 -127.1234 292.1005)" style="fill:#C16614;" width="7.211" height="1.665"/>
		
			<rect x="278.103" y="294.212" transform="matrix(0.702 -0.7122 0.7122 0.702 -126.7129 287.2907)" style="fill:#C16614;" width="3.605" height="1.666"/>
		
			<rect x="273.35" y="288.779" transform="matrix(0.7019 -0.7122 0.7122 0.7019 -123.7205 283.5765)" style="fill:#C16614;" width="7.211" height="1.66"/>
		
			<rect x="269.673" y="285.91" transform="matrix(0.7018 -0.7124 0.7124 0.7018 -123.3129 278.8961)" style="fill:#C16614;" width="3.606" height="1.663"/>
		
			<rect x="264.921" y="280.473" transform="matrix(0.7018 -0.7124 0.7124 0.7018 -120.3198 275.1754)" style="fill:#C16614;" width="7.211" height="1.664"/>
		
			<rect x="261.243" y="277.604" transform="matrix(0.7019 -0.7122 0.7122 0.7019 -119.909 270.3397)" style="fill:#C16614;" width="3.606" height="1.666"/>
		
			<rect x="256.493" y="272.168" transform="matrix(0.7017 -0.7124 0.7124 0.7017 -116.9178 266.731)" style="fill:#C16614;" width="7.21" height="1.665"/>
		
			<rect x="252.815" y="269.301" transform="matrix(0.7017 -0.7125 0.7125 0.7017 -116.5099 262.0003)" style="fill:#C16614;" width="3.606" height="1.665"/>
		
			<rect x="248.062" y="263.863" transform="matrix(0.7018 -0.7123 0.7123 0.7018 -113.5142 258.1941)" style="fill:#C16614;" width="7.211" height="1.664"/>
		
			<rect x="244.385" y="260.997" transform="matrix(0.7022 -0.712 0.712 0.7022 -113.1011 253.2415)" style="fill:#C16614;" width="3.606" height="1.663"/>
		
			<rect x="239.634" y="255.558" transform="matrix(0.7019 -0.7123 0.7123 0.7019 -110.1116 249.679)" style="fill:#C16614;" width="7.211" height="1.667"/>
		
			<rect x="235.955" y="252.69" transform="matrix(0.7017 -0.7124 0.7124 0.7017 -109.7045 245.0065)" style="fill:#C16614;" width="3.604" height="1.665"/>
		
			<rect x="231.205" y="247.257" transform="matrix(0.7018 -0.7123 0.7123 0.7018 -106.7102 241.2345)" style="fill:#C16614;" width="7.211" height="1.662"/>
		
			<rect x="227.527" y="244.387" transform="matrix(0.7019 -0.7123 0.7123 0.7019 -106.3009 236.4527)" style="fill:#C16614;" width="3.606" height="1.665"/>
		
			<rect x="222.776" y="238.951" transform="matrix(0.7018 -0.7124 0.7124 0.7018 -103.309 232.7733)" style="fill:#C16614;" width="7.21" height="1.665"/>
		
			<rect x="219.098" y="236.086" transform="matrix(0.7019 -0.7123 0.7123 0.7019 -102.8993 227.9807)" style="fill:#C16614;" width="3.605" height="1.661"/>
		
			<rect x="214.344" y="230.645" transform="matrix(0.7019 -0.7123 0.7123 0.7019 -99.9056 224.2401)" style="fill:#C16614;" width="7.211" height="1.667"/>
		
			<rect x="210.669" y="227.779" transform="matrix(0.7021 -0.7121 0.7121 0.7021 -99.4938 219.4007)" style="fill:#C16614;" width="3.604" height="1.665"/>
		
			<rect x="205.918" y="222.344" transform="matrix(0.7019 -0.7123 0.7123 0.7019 -96.5045 215.7792)" style="fill:#C16614;" width="7.211" height="1.665"/>
		
			<rect x="202.238" y="219.472" transform="matrix(0.7019 -0.7123 0.7123 0.7019 -96.0937 211.0184)" style="fill:#C16614;" width="3.605" height="1.667"/>
		
			<rect x="197.487" y="214.037" transform="matrix(0.7018 -0.7124 0.7124 0.7018 -93.1025 207.34)" style="fill:#C16614;" width="7.211" height="1.665"/>
		
			<rect x="193.81" y="211.172" transform="matrix(0.7017 -0.7124 0.7124 0.7017 -92.6937 202.5889)" style="fill:#C16614;" width="3.605" height="1.661"/>
		
			<rect x="189.057" y="205.733" transform="matrix(0.7018 -0.7123 0.7123 0.7018 -89.6994 198.828)" style="fill:#C16614;" width="7.211" height="1.665"/>
	</g>
	<g>
		<g>
			<path style="fill:#C3E8ED;" d="M562.779,326.67c0,8.104-117.646,14.694-262.771,14.694c-145.131,0-262.788-6.591-262.788-14.694
				c0-8.1,117.657-14.671,262.788-14.671C445.133,311.999,562.779,318.57,562.779,326.67z"/>
		</g>
	</g>
	<g>
		<g>
			<g>
				<g>
					<path style="fill:#518FDA;" d="M230.809,232.984l-0.329,1.188c-0.006,0.028,0.771,0.241,1.581,0.341
						c0.806,0.135,1.603,0.268,1.603,0.268l0.108-1.224c0,0-0.748-0.127-1.489-0.256
						C231.535,233.215,230.801,233.015,230.809,232.984z"/>
				</g>
			</g>
			<g>
				<g>
					<path style="fill:#518FDA;" d="M226.651,231.244l-0.602,1.08c0.005-0.004,2.871,1.464,2.93,1.347l0.426-1.154
						C229.359,232.636,226.651,231.244,226.651,231.244z"/>
				</g>
			</g>
			<g>
				<g>
					<path style="fill:#518FDA;" d="M222.939,228.637l-0.791,0.939c0,0,0.589,0.547,1.238,1.015
						c0.665,0.453,1.333,0.896,1.333,0.896l0.668-1.027c0,0-0.628-0.426-1.264-0.85
						C223.501,229.159,222.939,228.637,222.939,228.637z"/>
				</g>
			</g>
			<g>
				<g>
					<path style="fill:#518FDA;" d="M219.668,225.456l-0.927,0.806c0,0,0.554,0.575,1.1,1.155c0.546,0.582,1.114,1.138,1.114,1.138
						l0.842-0.896c0,0-0.543-0.534-1.074-1.098C220.197,226.003,219.668,225.456,219.668,225.456z"/>
				</g>
			</g>
			<g>
				<g>
					<path style="fill:#518FDA;" d="M216.89,221.798l-1.02,0.69c0,0,0.401,0.689,0.905,1.313c0.486,0.622,0.982,1.252,0.982,1.252
						l0.956-0.773c0,0-0.468-0.604-0.945-1.211C217.283,222.47,216.89,221.798,216.89,221.798z"/>
				</g>
			</g>
			<g>
				<g>
					<path style="fill:#518FDA;" d="M214.548,217.847l-1.09,0.563c0,0,1.49,2.809,1.559,2.771l1.049-0.648
						C216.003,220.574,214.552,217.844,214.548,217.847z"/>
				</g>
			</g>
			<g>
				<g>
					<polygon style="fill:#518FDA;" points="212.622,213.673 211.471,214.118 212.746,217.029 213.863,216.501 					"/>
				</g>
			</g>
		</g>
		<g>
			<g>
				<g>
					<path style="fill:#518FDA;" d="M211.162,209.304l-1.18,0.333c-0.071,0.017,0.971,3.026,0.971,3.026l1.16-0.421
						C212.113,212.242,211.095,209.325,211.162,209.304z"/>
				</g>
			</g>
			<g>
				<g>
					<path style="fill:#518FDA;" d="M210.132,204.812l-1.215,0.223c0,0,0.143,0.779,0.28,1.561c0.197,0.773,0.391,1.541,0.391,1.541
						l1.199-0.299c0,0-0.194-0.753-0.383-1.501C210.268,205.577,210.132,204.812,210.132,204.812z"/>
				</g>
			</g>
			<g>
				<g>
					<path style="fill:#518FDA;" d="M209.526,200.25l-1.229,0.108c0,0,0.276,3.153,0.355,3.148l1.215-0.178
						C209.794,203.331,209.526,200.25,209.526,200.25z"/>
				</g>
			</g>
			<g>
				<g>
					<polygon style="fill:#518FDA;" points="209.35,195.646 208.119,195.629 208.156,198.807 209.387,198.744 					"/>
				</g>
			</g>
			<g>
				<g>
					<polygon style="fill:#518FDA;" points="209.622,191.052 208.396,190.91 208.164,194.08 209.396,194.136 					"/>
				</g>
			</g>
			<g>
				<g>
					<path style="fill:#518FDA;" d="M210.376,186.508l-1.201-0.257c-0.073-0.021-0.547,3.129-0.547,3.129l1.222,0.175
						C209.849,189.555,210.302,186.493,210.376,186.508z"/>
				</g>
			</g>
			<g>
				<g>
					<path style="fill:#518FDA;" d="M211.595,182.076l-1.171-0.386c-0.082-0.028-0.868,3.054-0.868,3.054l1.193,0.301
						C210.753,185.042,211.518,182.049,211.595,182.076z"/>
				</g>
			</g>
		</g>
		<g>
			<g>
				<g>
					<path style="fill:#518FDA;" d="M213.251,177.78l-1.127-0.498c0,0-0.368,0.707-0.643,1.446c-0.27,0.748-0.535,1.495-0.535,1.495
						l1.161,0.424c0,0,0.26-0.727,0.517-1.455C212.892,178.465,213.251,177.78,213.251,177.78z"/>
				</g>
			</g>
			<g>
				<g>
					<path style="fill:#518FDA;" d="M215.333,173.675l-1.073-0.612c0,0-0.402,0.689-0.805,1.369c-0.328,0.724-0.67,1.443-0.67,1.443
						l1.109,0.537c0,0,0.328-0.7,0.657-1.401C214.943,174.338,215.333,173.675,215.333,173.675z"/>
				</g>
			</g>
			<g>
				<g>
					<path style="fill:#518FDA;" d="M217.812,169.797l-1.011-0.711c0,0-0.471,0.64-0.932,1.278
						c-0.407,0.677-0.815,1.362-0.815,1.362l1.051,0.645c0,0,0.394-0.666,0.79-1.323
						C217.351,170.421,217.812,169.797,217.812,169.797z"/>
				</g>
			</g>
			<g>
				<g>
					<path style="fill:#518FDA;" d="M220.639,166.163l-0.932-0.796c0,0-0.524,0.593-1.056,1.186c-0.459,0.638-0.931,1.28-0.931,1.28
						l0.982,0.743c0,0,0.455-0.628,0.911-1.249C220.13,166.745,220.639,166.163,220.639,166.163z"/>
				</g>
			</g>
			<g>
				<g>
					<path style="fill:#518FDA;" d="M223.787,162.797l-0.857-0.881c0,0-0.606,0.516-1.138,1.101
						c-0.527,0.59-1.054,1.188-1.054,1.188l0.909,0.832c0,0,0.514-0.587,1.032-1.161
						C223.196,163.303,223.787,162.797,223.787,162.797z"/>
				</g>
			</g>
			<g>
				<g>
					<path style="fill:#518FDA;" d="M227.212,159.695l-0.789-0.943c-0.052-0.07-2.36,2.112-2.36,2.112l0.838,0.906
						C224.901,161.77,227.158,159.634,227.212,159.695z"/>
				</g>
			</g>
			<g>
				<g>
					<polygon style="fill:#518FDA;" points="230.867,156.871 230.156,155.865 227.649,157.802 228.408,158.77 					"/>
				</g>
			</g>
		</g>
		<g>
			<g>
				<g>
					<polygon style="fill:#518FDA;" points="234.749,154.358 234.107,153.304 231.45,155.02 232.142,156.041 					"/>
				</g>
			</g>
			<g>
				<g>
					<polygon style="fill:#518FDA;" points="238.784,152.091 238.207,150.999 235.422,152.49 236.041,153.554 					"/>
				</g>
			</g>
			<g>
				<g>
					<path style="fill:#518FDA;" d="M242.939,150.043l-0.516-1.116c0,0-0.716,0.313-1.439,0.63
						c-0.725,0.326-1.411,0.716-1.407,0.721l0.552,1.102c0,0,0.676-0.392,1.382-0.708
						C242.227,150.358,242.939,150.043,242.939,150.043z"/>
				</g>
			</g>
			<g>
				<g>
					<polygon style="fill:#518FDA;" points="247.192,148.189 246.736,147.043 243.843,148.308 244.336,149.433 					"/>
				</g>
			</g>
			<g>
				<g>
					<polygon style="fill:#518FDA;" points="251.556,146.636 251.161,145.471 248.184,146.519 248.622,147.671 					"/>
				</g>
			</g>
			<g>
				<g>
					<path style="fill:#518FDA;" d="M255.98,145.232l-0.349-1.186c0,0-0.756,0.209-1.517,0.428c-0.764,0.183-1.5,0.476-1.5,0.476
						l0.383,1.183c0,0,0.725-0.301,1.479-0.484C255.232,145.443,255.98,145.232,255.98,145.232z"/>
				</g>
			</g>
			<g>
				<g>
					<polygon style="fill:#518FDA;" points="260.452,143.977 260.15,142.775 257.117,143.63 257.451,144.812 					"/>
				</g>
			</g>
		</g>
		<g>
			<g>
				<g>
					<polygon style="fill:#518FDA;" points="264.989,142.96 264.728,141.753 261.65,142.412 261.936,143.614 					"/>
				</g>
			</g>
			<g>
				<g>
					<path style="fill:#518FDA;" d="M269.534,142.009l-0.214-1.213c0,0-0.777,0.128-1.547,0.309
						c-0.764,0.165-1.545,0.328-1.545,0.328l0.255,1.206c0,0,0.759-0.163,1.528-0.326
						C268.763,142.134,269.534,142.009,269.534,142.009z"/>
				</g>
			</g>
			<g>
				<g>
					<polygon style="fill:#518FDA;" points="274.134,141.303 273.951,140.081 270.844,140.564 271.046,141.78 					"/>
				</g>
			</g>
			<g>
				<g>
					<path style="fill:#518FDA;" d="M278.725,140.649l-0.123-1.222c0,0-0.803,0.04-1.575,0.179
						c-0.777,0.121-1.551,0.239-1.551,0.239l0.167,1.22c0,0,0.771-0.116,1.542-0.24
						C277.962,140.687,278.725,140.649,278.725,140.649z"/>
				</g>
			</g>
			<g>
				<g>
					<path style="fill:#518FDA;" d="M283.298,140.49l0.045-1.231c0-0.071-3.191,0.018-3.191,0.018l0.072,1.231
						C280.224,140.509,283.303,140.431,283.298,140.49z"/>
				</g>
			</g>
			<g>
				<g>
					<path style="fill:#518FDA;" d="M287.841,140.991l0.238-1.21c0.002-0.064-3.173-0.437-3.173-0.437l-0.1,1.226
						C284.807,140.57,287.854,140.923,287.841,140.991z"/>
				</g>
			</g>
			<g>
				<g>
					<path style="fill:#518FDA;" d="M292.233,142.2l0.433-1.159c0,0-0.744-0.318-1.52-0.511c-0.776-0.22-1.543-0.435-1.543-0.435
						l-0.29,1.197C289.313,141.292,292.257,142.133,292.233,142.2z"/>
				</g>
			</g>
		</g>
		<g>
			<g>
				<g>
					<path style="fill:#518FDA;" d="M296.355,144.129l0.625-1.065c0,0-0.705-0.384-1.407-0.777c-0.729-0.33-1.453-0.667-1.453-0.667
						l-0.487,1.131c0,0,0.688,0.316,1.387,0.642C295.681,143.761,296.355,144.129,296.355,144.129z"/>
				</g>
			</g>
			<g>
				<g>
					<path style="fill:#518FDA;" d="M300.059,146.765l0.805-0.924c0,0-0.607-0.533-1.251-1.011
						c-0.615-0.511-1.307-0.928-1.307-0.928l-0.684,1.026c0,0,0.66,0.395,1.247,0.88
						C299.484,146.272,300.059,146.765,300.059,146.765z"/>
				</g>
			</g>
			<g>
				<g>
					<path style="fill:#518FDA;" d="M303.217,150.039l0.957-0.767c0,0-0.495-0.629-1.033-1.227c-0.556-0.58-1.113-1.161-1.113-1.161
						l-0.855,0.884c0,0,0.527,0.549,1.056,1.104C302.748,149.443,303.217,150.039,303.217,150.039z"/>
				</g>
			</g>
			<g>
				<g>
					<path style="fill:#518FDA;" d="M305.681,153.82l1.111-0.532c0.061-0.04-1.623-2.799-1.676-2.756l-1.006,0.702
						C304.165,151.213,305.745,153.801,305.681,153.82z"/>
				</g>
			</g>
			<g>
				<g>
					<path style="fill:#518FDA;" d="M307.338,157.986l1.23-0.205c0,0-0.23-0.779-0.492-1.548c-0.264-0.769-0.602-1.509-0.602-1.509
						l-1.157,0.433c0,0,0.321,0.684,0.559,1.392C307.121,157.262,307.338,157.986,307.338,157.986z"/>
				</g>
			</g>
			<g>
				<g>
					<path style="fill:#518FDA;" d="M308.025,162.412l1.264,0.131c0,0-0.057-0.805-0.106-1.609
						c-0.128-0.805-0.258-1.608-0.258-1.608l-1.241,0.094c0,0,0.12,0.746,0.23,1.486
						C307.972,161.657,308.025,162.412,308.025,162.412z"/>
				</g>
			</g>
			<g>
				<g>
					<path style="fill:#518FDA;" d="M307.531,166.857l1.2,0.462c0,0,0.19-0.788,0.347-1.581c0.095-0.802,0.188-1.607,0.188-1.607
						l-1.264-0.247c0,0-0.077,0.755-0.158,1.496C307.698,166.125,307.531,166.857,307.531,166.857z"/>
				</g>
			</g>
		</g>
		<g>
			<g>
				<g>
					<path style="fill:#518FDA;" d="M305.663,170.918l1.06,0.758c0.13,0.079,1.577-2.825,1.519-2.848l-1.168-0.569
						C307.132,168.282,305.791,170.996,305.663,170.918z"/>
				</g>
			</g>
			<g>
				<g>
					<path style="fill:#518FDA;" d="M302.504,174.067l0.832,1c0.088,0.112,2.467-2.088,2.404-2.144l-0.986-0.846
						C304.811,172.134,302.59,174.173,302.504,174.067z"/>
				</g>
			</g>
			<g>
				<g>
					<path style="fill:#518FDA;" d="M298.514,176.077l0.53,1.159c0.013,0.03,0.779-0.224,1.49-0.625
						c0.725-0.358,1.45-0.718,1.45-0.718l-0.731-1.061c0,0-0.677,0.337-1.354,0.665
						C299.236,175.866,298.522,176.102,298.514,176.077z"/>
				</g>
			</g>
			<g>
				<g>
					<path style="fill:#518FDA;" d="M294.135,176.974l0.201,1.241c0,0,0.809-0.09,1.61-0.181c0.821-0.03,1.572-0.378,1.58-0.342
						l-0.434-1.199c-0.008-0.034-0.705,0.294-1.462,0.32C294.878,176.89,294.135,176.974,294.135,176.974z"/>
				</g>
			</g>
			<g>
				<g>
					<path style="fill:#518FDA;" d="M289.677,176.646l-0.134,1.236c0,0,0.198,0.042,0.49,0.104c0.301,0.069,0.693,0.168,1.095,0.164
						c0.817,0.046,1.629,0.097,1.629,0.097l-0.092-1.255c0,0-0.755-0.041-1.508-0.088
						C290.402,176.877,289.678,176.613,289.677,176.646z"/>
				</g>
			</g>
			<g>
				<g>
					<path style="fill:#518FDA;" d="M285.403,175.3l-0.469,1.141c0,0,3.034,1.168,3.055,1.101l0.243-1.213
						C288.215,176.391,285.403,175.3,285.403,175.3z"/>
				</g>
			</g>
			<g>
				<g>
					<path style="fill:#518FDA;" d="M281.481,173.037l-0.698,1.022c0,0,0.656,0.444,1.323,0.897c0.712,0.377,1.42,0.75,1.42,0.75
						l0.57-1.092c0,0-0.678-0.358-1.356-0.714C282.112,173.464,281.481,173.037,281.481,173.037z"/>
				</g>
			</g>
		</g>
		<g>
			<g>
				<g>
					<path style="fill:#518FDA;" d="M277.884,170.21l-0.835,0.908c0,0,0.608,0.518,1.217,1.031c0.604,0.52,1.225,1.019,1.225,1.019
						l0.747-0.982c0,0-0.598-0.476-1.19-0.981C278.467,170.708,277.884,170.21,277.884,170.21z"/>
				</g>
			</g>
			<g>
				<g>
					<path style="fill:#518FDA;" d="M274.69,166.91l-0.934,0.803c-0.059,0.047,2.176,2.317,2.176,2.317l0.864-0.874
						C276.796,169.156,274.635,166.963,274.69,166.91z"/>
				</g>
			</g>
			<g>
				<g>
					<path style="fill:#518FDA;" d="M271.875,163.267l-1.011,0.707c0,0,0.458,0.65,0.914,1.305c0.468,0.635,0.993,1.234,0.993,1.234
						l0.954-0.771c0,0-0.506-0.581-0.96-1.204C272.317,163.909,271.875,163.267,271.875,163.267z"/>
				</g>
			</g>
			<g>
				<g>
					<path style="fill:#518FDA;" d="M269.415,159.37l-1.076,0.616c0,0,0.402,0.68,0.805,1.363c0.4,0.689,0.831,1.348,0.831,1.348
						l1.034-0.677c0,0-0.425-0.64-0.807-1.312C269.807,160.044,269.415,159.37,269.415,159.37z"/>
				</g>
			</g>
			<g>
				<g>
					<polygon style="fill:#518FDA;" points="267.296,155.275 266.176,155.789 267.586,158.632 268.673,158.047 					"/>
				</g>
			</g>
			<g>
				<g>
					<path style="fill:#518FDA;" d="M265.564,151.001l-1.164,0.415c-0.063,0.026,1.173,2.945,1.173,2.945l1.136-0.48
						C266.709,153.881,265.497,151.023,265.564,151.001z"/>
				</g>
			</g>
			<g>
				<g>
					<path style="fill:#518FDA;" d="M264.204,146.589l-1.187,0.322c0,0,0.167,0.774,0.407,1.521c0.25,0.754,0.499,1.511,0.499,1.511
						l1.168-0.385c0,0-0.237-0.733-0.483-1.478C264.365,147.352,264.204,146.589,264.204,146.589z"/>
				</g>
			</g>
		</g>
		<g>
			<g>
				<g>
					<path style="fill:#518FDA;" d="M263.217,142.088l-1.212,0.206c0,0,0.137,0.782,0.273,1.563c0.15,0.78,0.358,1.544,0.358,1.544
						l1.203-0.277c0,0-0.214-0.751-0.36-1.51C263.349,142.848,263.217,142.088,263.217,142.088z"/>
				</g>
			</g>
			<g>
				<g>
					<path style="fill:#518FDA;" d="M262.626,137.514l-1.229,0.1c0,0,0.273,3.157,0.345,3.154l1.225-0.177
						C262.892,140.603,262.626,137.514,262.626,137.514z"/>
				</g>
			</g>
			<g>
				<g>
					<polygon style="fill:#518FDA;" points="262.45,132.911 261.213,132.898 261.258,136.07 262.488,136.009 					"/>
				</g>
			</g>
			<g>
				<g>
					<polygon style="fill:#518FDA;" points="262.708,128.318 261.481,128.179 261.245,131.343 262.473,131.396 					"/>
				</g>
			</g>
			<g>
				<g>
					<polygon style="fill:#518FDA;" points="263.433,123.774 262.232,123.508 261.699,126.641 262.915,126.814 					"/>
				</g>
			</g>
			<g>
				<g>
					<path style="fill:#518FDA;" d="M264.678,119.353l-1.161-0.4c-0.095-0.034-0.887,3.05-0.887,3.05l1.202,0.305
						C263.832,122.308,264.586,119.316,264.678,119.353z"/>
				</g>
			</g>
			<g>
				<g>
					<path style="fill:#518FDA;" d="M266.408,115.085l-1.12-0.519c0,0-0.405,0.688-0.661,1.444
						c-0.279,0.742-0.564,1.486-0.564,1.486l1.154,0.436c0,0,0.268-0.724,0.542-1.445
						C266.011,115.754,266.408,115.085,266.408,115.085z"/>
				</g>
			</g>
		</g>
		<g>
			<g>
				<g>
					<path style="fill:#518FDA;" d="M268.603,111.06l-1.047-0.649c0,0-0.421,0.671-0.848,1.347c-0.364,0.705-0.719,1.42-0.719,1.42
						l1.096,0.563c0,0,0.343-0.69,0.691-1.383C268.191,111.707,268.603,111.06,268.603,111.06z"/>
				</g>
			</g>
			<g>
				<g>
					<path style="fill:#518FDA;" d="M271.239,107.301l-0.968-0.762c0,0-0.5,0.615-0.996,1.235c-0.439,0.663-0.881,1.326-0.881,1.326
						l1.028,0.69c0,0,0.425-0.651,0.849-1.293C270.754,107.895,271.239,107.301,271.239,107.301z"/>
				</g>
			</g>
			<g>
				<g>
					<path style="fill:#518FDA;" d="M274.281,103.851l-0.878-0.856c0,0-0.566,0.556-1.129,1.12c-0.545,0.579-1.02,1.215-1.02,1.215
						l0.938,0.792c0,0,0.462-0.617,0.994-1.177C273.73,104.403,274.281,103.851,274.281,103.851z"/>
				</g>
			</g>
			<g>
				<g>
					<path style="fill:#518FDA;" d="M277.671,100.746l-0.788-0.945c0,0-0.618,0.495-1.233,0.996
						c-0.596,0.527-1.146,1.093-1.146,1.093l0.846,0.897c0,0,0.537-0.564,1.114-1.075
						C277.063,101.233,277.671,100.746,277.671,100.746z"/>
				</g>
			</g>
			<g>
				<g>
					<path style="fill:#518FDA;" d="M281.354,97.979l-0.696-1.018c0,0-0.656,0.438-1.328,0.872c-0.618,0.495-1.235,0.99-1.235,0.99
						l0.758,0.977c0,0,0.604-0.483,1.204-0.973C280.706,98.403,281.354,97.979,281.354,97.979z"/>
				</g>
			</g>
			<g>
				<g>
					<path style="fill:#518FDA;" d="M285.264,95.541l-0.604-1.078c-0.038-0.072-2.699,1.655-2.699,1.655l0.663,1.036
						C282.623,97.154,285.224,95.461,285.264,95.541z"/>
				</g>
			</g>
			<g>
				<g>
					<polygon style="fill:#518FDA;" points="289.367,93.407 288.847,92.288 286.037,93.752 286.616,94.839 					"/>
				</g>
			</g>
		</g>
		<g>
			<g>
				<g>
					<polygon style="fill:#518FDA;" points="293.643,91.646 293.202,90.494 290.278,91.699 290.769,92.825 					"/>
				</g>
			</g>
			<g>
				<g>
					<polygon style="fill:#518FDA;" points="298,90.139 297.661,88.961 294.641,89.915 295.056,91.079 					"/>
				</g>
			</g>
			<g>
				<g>
					<polygon style="fill:#518FDA;" points="302.478,89.027 302.24,87.825 299.155,88.551 299.463,89.737 					"/>
				</g>
			</g>
			<g>
				<g>
					<polygon style="fill:#518FDA;" points="307.041,88.271 306.884,87.051 303.761,87.554 303.983,88.77 					"/>
				</g>
			</g>
			<g>
				<g>
					<polygon style="fill:#518FDA;" points="311.65,87.851 311.575,86.62 308.434,86.908 308.558,88.129 					"/>
				</g>
			</g>
			<g>
				<g>
					<polygon style="fill:#518FDA;" points="316.279,87.754 316.288,86.522 313.124,86.587 313.169,87.817 					"/>
				</g>
			</g>
			<g>
				<g>
					<polygon style="fill:#518FDA;" points="320.9,87.962 320.997,86.731 317.83,86.585 317.793,87.816 					"/>
				</g>
			</g>
		</g>
		<g>
			<g>
				<g>
					<polygon style="fill:#518FDA;" points="325.498,88.475 325.67,87.254 322.535,86.883 322.409,88.107 					"/>
				</g>
			</g>
			<g>
				<g>
					<polygon style="fill:#518FDA;" points="330.054,89.284 330.303,88.073 327.2,87.484 327.004,88.701 					"/>
				</g>
			</g>
			<g>
				<g>
					<polygon style="fill:#518FDA;" points="334.554,90.375 334.873,89.189 331.827,88.373 331.551,89.572 					"/>
				</g>
			</g>
			<g>
				<g>
					<path style="fill:#518FDA;" d="M338.971,91.748l0.401-1.165c0,0-2.977-1.063-2.999-0.998l-0.352,1.181
						C336.043,90.702,338.971,91.748,338.971,91.748z"/>
				</g>
			</g>
			<g>
				<g>
					<path style="fill:#518FDA;" d="M343.297,93.376l0.476-1.138c0,0-0.728-0.315-1.451-0.627c-0.745-0.262-1.488-0.528-1.488-0.528
						l-0.424,1.16c0,0,0.733,0.255,1.464,0.508C342.583,93.065,343.297,93.376,343.297,93.376z"/>
				</g>
			</g>
			<g>
				<g>
					<path style="fill:#518FDA;" d="M347.525,95.27l0.541-1.103c0.036-0.07-2.872-1.306-2.872-1.306l-0.499,1.125
						C344.695,93.985,347.556,95.204,347.525,95.27z"/>
				</g>
			</g>
			<g>
				<g>
					<polygon style="fill:#518FDA;" points="351.61,97.449 352.22,96.38 349.433,94.894 348.868,95.982 					"/>
				</g>
			</g>
		</g>
		<g>
			<g>
				<g>
					<polygon style="fill:#518FDA;" points="355.537,99.899 356.216,98.87 353.545,97.166 352.915,98.218 					"/>
				</g>
			</g>
			<g>
				<g>
					<path style="fill:#518FDA;" d="M359.318,102.569l0.739-0.989c0,0-2.494-1.943-2.536-1.878l-0.703,1.017
						C356.865,100.649,359.318,102.569,359.318,102.569z"/>
				</g>
			</g>
			<g>
				<g>
					<path style="fill:#518FDA;" d="M362.956,105.427l0.795-0.939c0,0-0.553-0.561-1.205-1.017
						c-0.634-0.481-1.262-0.957-1.262-0.957l-0.755,0.97c0,0,0.616,0.47,1.242,0.942
						C362.405,104.873,362.956,105.427,362.956,105.427z"/>
				</g>
			</g>
			<g>
				<g>
					<polygon style="fill:#518FDA;" points="366.408,108.523 367.255,107.627 364.9,105.517 364.088,106.445 					"/>
				</g>
			</g>
			<g>
				<g>
					<polygon style="fill:#518FDA;" points="369.642,111.829 370.541,110.988 368.368,108.703 367.504,109.577 					"/>
				</g>
			</g>
			<g>
				<g>
					<path style="fill:#518FDA;" d="M372.724,115.273l0.959-0.773c0,0-0.497-0.621-1.002-1.237
						c-0.532-0.574-1.075-1.153-1.075-1.153l-0.909,0.826c0,0,0.53,0.569,1.056,1.136
						C372.239,114.675,372.724,115.273,372.724,115.273z"/>
				</g>
			</g>
			<g>
				<g>
					<path style="fill:#518FDA;" d="M375.44,118.981l1.04-0.671c0,0-1.761-2.651-1.827-2.598l-0.98,0.738
						C373.742,116.401,375.44,118.981,375.44,118.981z"/>
				</g>
			</g>
		</g>
		<g>
			<g>
				<g>
					<polygon style="fill:#518FDA;" points="377.751,122.957 378.852,122.404 377.327,119.619 376.269,120.252 					"/>
				</g>
			</g>
			<g>
				<g>
					<path style="fill:#518FDA;" d="M379.521,127.186l1.172-0.408c0,0-0.226-0.772-0.558-1.496
						c-0.318-0.726-0.636-1.455-0.636-1.455l-1.127,0.502c0,0,0.311,0.71,0.62,1.415
						C379.323,126.44,379.521,127.186,379.521,127.186z"/>
				</g>
			</g>
			<g>
				<g>
					<path style="fill:#518FDA;" d="M380.81,131.596l1.202-0.269c0,0-0.755-3.1-0.824-3.074l-1.181,0.363
						C380.083,128.597,380.81,131.596,380.81,131.596z"/>
				</g>
			</g>
			<g>
				<g>
					<path style="fill:#518FDA;" d="M381.591,136.128l1.23-0.143c0.058-0.014-0.489-3.145-0.489-3.145l-1.214,0.234
						C381.118,133.075,381.659,136.12,381.591,136.128z"/>
				</g>
			</g>
			<g>
				<g>
					<path style="fill:#518FDA;" d="M381.936,140.732l1.23-0.038c0,0-0.031-0.795-0.067-1.585c-0.013-0.796-0.124-1.582-0.124-1.582
						l-1.223,0.11c0,0,0.107,0.768,0.115,1.54C381.898,139.951,381.936,140.732,381.936,140.732z"/>
				</g>
			</g>
			<g>
				<g>
					<path style="fill:#518FDA;" d="M381.922,145.35l1.232,0.049c0,0,0.041-0.789,0.034-1.579c0.013-0.789,0.014-1.58,0.014-1.58
						l-1.23,0.008c0,0-0.006,0.777-0.013,1.554C381.966,144.576,381.922,145.35,381.922,145.35z"/>
				</g>
			</g>
			<g>
				<g>
					<polygon style="fill:#518FDA;" points="381.65,149.986 382.877,150.087 383.086,146.942 381.854,146.877 					"/>
				</g>
			</g>
		</g>
		<g>
			<g>
				<g>
					<polygon style="fill:#518FDA;" points="381.214,154.625 382.444,154.748 382.744,151.617 381.519,151.508 					"/>
				</g>
			</g>
			<g>
				<g>
					<polygon style="fill:#518FDA;" points="380.73,159.266 381.952,159.392 382.28,156.278 381.056,156.145 					"/>
				</g>
			</g>
			<g>
				<g>
					<polygon style="fill:#518FDA;" points="380.309,163.933 381.533,164.026 381.803,160.915 380.577,160.795 					"/>
				</g>
			</g>
			<g>
				<g>
					<polygon style="fill:#518FDA;" points="380.053,168.633 381.285,168.656 381.424,165.555 380.19,165.475 					"/>
				</g>
			</g>
			<g>
				<g>
					<path style="fill:#518FDA;" d="M380.157,173.349l1.229-0.081c0,0-0.045-0.767-0.095-1.541
						c-0.009-0.774-0.011-1.553-0.011-1.553l-1.231,0.008c0,0,0.009,0.791,0.011,1.583
						C380.11,172.56,380.157,173.349,380.157,173.349z"/>
				</g>
			</g>
			<g>
				<g>
					<path style="fill:#518FDA;" d="M380.749,178.057l1.213-0.229c-0.074,0.012-0.463-3.052-0.463-3.052l-1.225,0.13
						C380.275,174.906,380.671,178.064,380.749,178.057z"/>
				</g>
			</g>
			<g>
				<g>
					<path style="fill:#518FDA;" d="M382.012,182.661l1.153-0.43c0,0-0.969-2.918-0.887-2.939l-1.193,0.3
						C381.002,179.609,382.012,182.661,382.012,182.661z"/>
				</g>
			</g>
		</g>
		<g>
			<g>
				<g>
					<path style="fill:#518FDA;" d="M384.056,186.967l1.066-0.622c0,0-0.379-0.659-0.762-1.324
						c-0.309-0.698-0.613-1.403-0.613-1.403l-1.136,0.486c0,0,0.32,0.732,0.643,1.47
						C383.654,186.273,384.056,186.967,384.056,186.967z"/>
				</g>
			</g>
			<g>
				<g>
					<path style="fill:#518FDA;" d="M386.779,190.887l0.944-0.789c0,0-0.482-0.602-0.927-1.225
						c-0.458-0.621-0.911-1.237-0.911-1.237l-1.03,0.683c0,0,0.477,0.644,0.951,1.293
						C386.273,190.266,386.779,190.887,386.779,190.887z"/>
				</g>
			</g>
			<g>
				<g>
					<path style="fill:#518FDA;" d="M390.112,194.273l0.822-0.915c0,0-0.577-0.518-1.151-1.026c-0.521-0.561-1.045-1.13-1.045-1.13
						l-0.905,0.838c0,0,0.543,0.581,1.087,1.167C389.514,193.741,390.112,194.273,390.112,194.273z"/>
				</g>
			</g>
			<g>
				<g>
					<path style="fill:#518FDA;" d="M393.825,197.222l0.708-1.012c0,0-0.622-0.458-1.246-0.914c-0.625-0.457-1.229-0.932-1.23-0.932
						l-0.786,0.953c0,0,0.63,0.493,1.272,0.957C393.182,196.744,393.825,197.222,393.825,197.222z"/>
				</g>
			</g>
			<g>
				<g>
					<polygon style="fill:#518FDA;" points="397.812,199.76 398.421,198.684 395.781,197.072 395.107,198.098 					"/>
				</g>
			</g>
			<g>
				<g>
					<polygon style="fill:#518FDA;" points="401.99,201.936 402.521,200.828 399.764,199.407 399.178,200.487 					"/>
				</g>
			</g>
			<g>
				<g>
					<polygon style="fill:#518FDA;" points="406.306,203.837 406.762,202.69 403.91,201.448 403.403,202.573 					"/>
				</g>
			</g>
		</g>
		<g>
			<g>
				<g>
					<path style="fill:#518FDA;" d="M410.98,204.972l0.149-1.218c0,0-0.776-0.055-1.509-0.23c-0.372-0.07-0.744-0.147-1.02-0.194
						c-0.266-0.093-0.445-0.144-0.445-0.144l-0.357,1.183c0,0,0.198,0.061,0.487,0.143c0.301,0.062,0.704,0.145,1.104,0.221
						C410.183,204.912,410.98,204.972,410.98,204.972z"/>
				</g>
			</g>
			<g>
				<g>
					<path style="fill:#518FDA;" d="M415.734,205.185l-0.03-1.234c0,0-0.771,0.043-1.546,0.005c-0.771-0.03-1.537-0.058-1.537-0.058
						l-0.077,1.233c0,0,0.798,0.026,1.589,0.057C414.936,205.23,415.734,205.185,415.734,205.185z"/>
				</g>
			</g>
			<g>
				<g>
					<path style="fill:#518FDA;" d="M420.456,204.794l-0.174-1.222c0,0-0.759,0.145-1.53,0.191
						c-0.773,0.069-1.541,0.134-1.541,0.134l0.075,1.229c0,0,0.793-0.069,1.589-0.14
						C419.67,204.936,420.456,204.794,420.456,204.794z"/>
				</g>
			</g>
			<g>
				<g>
					<path style="fill:#518FDA;" d="M425.107,203.799l-0.344-1.174c0.014,0.06-2.989,0.724-2.989,0.724l0.227,1.21
						C422,204.559,425.118,203.867,425.107,203.799z"/>
				</g>
			</g>
			<g>
				<g>
					<path style="fill:#518FDA;" d="M429.556,202.01l-0.586-1.082c0.011,0.028-0.681,0.34-1.377,0.649
						c-0.684,0.341-1.408,0.578-1.408,0.578l0.419,1.16c0,0,0.763-0.253,1.487-0.61C428.833,202.373,429.569,202.041,429.556,202.01
						z"/>
				</g>
			</g>
			<g>
				<g>
					<path style="fill:#518FDA;" d="M433.373,198.977l-0.945-0.794c0.11,0.091-2.142,2.056-2.215,1.965l0.698,1.024
						C430.976,201.279,433.485,199.092,433.373,198.977z"/>
				</g>
			</g>
			<g>
				<g>
					<path style="fill:#518FDA;" d="M435.424,194.491l-1.226-0.196c0.209,0.058-0.838,2.772-0.918,2.741l1.06,0.623
						c0.048,0.027,0.349-0.77,0.68-1.54C435.425,195.366,435.379,194.49,435.424,194.491z"/>
				</g>
			</g>
		</g>
		<g>
			<g>
				<g>
					<path style="fill:#518FDA;" d="M435.097,189.61l-1.185,0.329c-0.014,0.033,0.268,0.724,0.286,1.467
						c0.078,0.732,0.16,1.471,0.16,1.471l1.232-0.008c0,0-0.088-0.823-0.176-1.651C435.384,190.377,435.066,189.588,435.097,189.61z
						"/>
				</g>
			</g>
			<g>
				<g>
					<path style="fill:#518FDA;" d="M433.489,185.113l-1.105,0.55c0,0,1.226,2.722,1.119,2.808l1.186-0.343
						C434.821,188.135,433.489,185.113,433.489,185.113z"/>
				</g>
			</g>
			<g>
				<g>
					<path style="fill:#518FDA;" d="M430.646,181.174l-0.859,0.884c0,0,0.497,0.55,0.997,1.106c0.496,0.558,0.832,1.262,0.852,1.237
						l1.036-0.665c0,0-0.112-0.173-0.271-0.426c-0.173-0.262-0.359-0.628-0.655-0.917
						C431.195,181.783,430.646,181.174,430.646,181.174z"/>
				</g>
			</g>
			<g>
				<g>
					<path style="fill:#518FDA;" d="M426.541,178.507l-0.44,1.147c0,0,0.66,0.33,1.328,0.663c0.698,0.27,1.213,0.851,1.232,0.812
						l0.74-0.988c-0.027,0.044-0.603-0.593-1.374-0.901C427.281,178.869,426.541,178.507,426.541,178.507z"/>
				</g>
			</g>
			<g>
				<g>
					<path style="fill:#518FDA;" d="M421.752,177.621l-0.021,1.235c0.005-0.083,3.003,0.27,2.967,0.396l0.297-1.202
						C425.021,177.917,421.754,177.534,421.752,177.621z"/>
				</g>
			</g>
			<g>
				<g>
					<path style="fill:#518FDA;" d="M416.974,178.169l0.281,1.201c0,0,0.185-0.072,0.462-0.115c0.281-0.045,0.656-0.105,1.037-0.165
						c0.374-0.06,0.748-0.122,1.027-0.17c0.283-0.034,0.471-0.027,0.471-0.027l-0.087-1.226c0,0-0.208-0.009-0.504,0.031
						c-0.304,0.043-0.702,0.107-1.103,0.173c-0.398,0.063-0.795,0.129-1.095,0.176C417.158,178.102,416.974,178.169,416.974,178.169
						z"/>
				</g>
			</g>
			<g>
				<g>
					<path style="fill:#518FDA;" d="M412.447,179.696l0.495,1.129c0,0,2.847-1.148,2.875-1.052l-0.359-1.185
						C415.422,178.499,412.447,179.696,412.447,179.696z"/>
				</g>
			</g>
		</g>
		<g>
			<g>
				<g>
					<path style="fill:#518FDA;" d="M408.257,181.929l0.636,1.049c0,0,0.663-0.393,1.321-0.795c0.676-0.373,1.374-0.7,1.374-0.7
						l-0.552-1.105c0,0-0.725,0.341-1.42,0.73C408.936,181.52,408.257,181.929,408.257,181.929z"/>
				</g>
			</g>
			<g>
				<g>
					<path style="fill:#518FDA;" d="M404.369,184.645l0.762,0.972c-0.039-0.054,2.492-1.829,2.492-1.829l-0.687-1.02
						C406.937,182.768,404.327,184.591,404.369,184.645z"/>
				</g>
			</g>
			<g>
				<g>
					<path style="fill:#518FDA;" d="M400.811,187.77l0.867,0.885c0,0,0.555-0.535,1.117-1.063c0.552-0.547,1.169-1.014,1.169-1.014
						l-0.8-0.944c0,0-0.632,0.482-1.193,1.048C401.394,187.226,400.811,187.77,400.811,187.77z"/>
				</g>
			</g>
			<g>
				<g>
					<path style="fill:#518FDA;" d="M397.585,191.225l0.942,0.794c-0.047-0.037,2.079-2.29,2.079-2.29l-0.892-0.863
						c0,0-0.542,0.585-1.078,1.174C398.083,190.604,397.585,191.225,397.585,191.225z"/>
				</g>
			</g>
			<g>
				<g>
					<path style="fill:#518FDA;" d="M394.719,194.985l1.008,0.704c0,0,0.449-0.638,0.894-1.271c0.434-0.638,0.951-1.218,0.951-1.218
						l-0.962-0.763c0,0-0.532,0.591-0.975,1.248C395.179,194.339,394.719,194.985,394.719,194.985z"/>
				</g>
			</g>
			<g>
				<g>
					<polygon style="fill:#518FDA;" points="392.193,198.99 393.275,199.588 394.875,196.938 393.842,196.271 					"/>
				</g>
			</g>
			<g>
				<g>
					<path style="fill:#518FDA;" d="M390.133,203.245l1.132,0.485c0,0,0.303-0.714,0.61-1.423c0.354-0.686,0.705-1.376,0.705-1.376
						l-1.093-0.563c0,0-0.362,0.703-0.723,1.412C390.45,202.514,390.133,203.245,390.133,203.245z"/>
				</g>
			</g>
		</g>
		<g>
			<g>
				<g>
					<path style="fill:#518FDA;" d="M388.487,207.685l1.175,0.362c0,0,0.946-2.947,1.01-2.918l-1.148-0.449
						C389.466,204.65,388.487,207.685,388.487,207.685z"/>
				</g>
			</g>
			<g>
				<g>
					<path style="fill:#518FDA;" d="M387.358,212.289l1.211,0.224c-0.082-0.014,0.684-3.017,0.684-3.017l-1.189-0.313
						C388.064,209.184,387.273,212.268,387.358,212.289z"/>
				</g>
			</g>
			<g>
				<g>
					<path style="fill:#518FDA;" d="M386.802,216.992l1.23,0.08c0,0,0.044-0.775,0.089-1.545c0.083-0.765,0.219-1.524,0.219-1.524
						l-1.218-0.173c0,0-0.147,0.786-0.222,1.571C386.853,216.195,386.802,216.992,386.802,216.992z"/>
				</g>
			</g>
			<g>
				<g>
					<polygon style="fill:#518FDA;" points="386.802,221.744 388.028,221.66 387.94,218.572 386.704,218.552 					"/>
				</g>
			</g>
			<g>
				<g>
					<path style="fill:#518FDA;" d="M387.437,226.44l1.205-0.239c-0.096,0.019-0.465-3.043-0.465-3.043l-1.22,0.135
						C386.957,223.293,387.342,226.461,387.437,226.44z"/>
				</g>
			</g>
			<g>
				<g>
					<path style="fill:#518FDA;" d="M388.693,231.024l1.163-0.401c0,0-0.255-0.724-0.507-1.456c-0.18-0.747-0.355-1.496-0.355-1.496
						l-1.196,0.294c0,0,0.181,0.771,0.366,1.549C388.436,230.268,388.693,231.024,388.693,231.024z"/>
				</g>
			</g>
			<g>
				<g>
					<path style="fill:#518FDA;" d="M390.49,235.411l1.107-0.537c0,0-1.327-2.788-1.247-2.822l-1.143,0.445
						C389.119,232.53,390.495,235.407,390.49,235.411z"/>
				</g>
			</g>
		</g>
	</g>
	<g>
		<g>
			<path style="fill:#FE9800;" d="M349.35,167.052c0.021-1.388,1.167-2.498,2.555-2.477c1.386,0.022,2.5,1.165,2.478,2.554
				c-0.021,1.385-1.167,2.498-2.554,2.478C350.437,169.585,349.33,168.437,349.35,167.052z M353.689,167.117
				c0.016-1.004-0.791-1.835-1.798-1.852c-1.003-0.015-1.838,0.792-1.854,1.799c-0.013,1.005,0.795,1.836,1.802,1.85
				C352.844,168.929,353.674,168.126,353.689,167.117z"/>
		</g>
	</g>
	<g>
		<g>
			<path style="fill:#2F2166;" d="M322.469,165.363l0.518-0.462l1.957,2.193c0.58,0.654,1.592,0.712,2.244,0.136l1.761-1.555
				c0.464-0.403,1.049-0.606,1.66-0.564c0.609,0.037,1.167,0.313,1.573,0.772l1.285,1.464c0.283,0.322,0.674,0.514,1.105,0.539
				c0.432,0.024,0.846-0.122,1.162-0.41l1.544-1.403c0.476-0.428,1.087-0.637,1.724-0.585c0.628,0.051,1.213,0.363,1.604,0.858
				l0.79,0.996c0.289,0.367,0.719,0.585,1.186,0.603c0.469,0.019,0.916-0.167,1.232-0.511l1.881-2.027l0.506,0.472l-1.877,2.029
				c-0.454,0.49-1.102,0.755-1.766,0.729c-0.668-0.027-1.289-0.341-1.703-0.865l-0.791-0.995c-0.275-0.35-0.674-0.563-1.121-0.598
				c-0.443-0.038-0.869,0.11-1.202,0.407l-1.545,1.404c-0.454,0.412-1.048,0.622-1.663,0.588c-0.617-0.037-1.178-0.311-1.59-0.772
				l-1.283-1.465c-0.28-0.321-0.672-0.511-1.095-0.54c-0.427-0.025-0.838,0.114-1.157,0.395l-1.763,1.554
				c-0.94,0.83-2.383,0.742-3.221-0.194L322.469,165.363z"/>
		</g>
	</g>
	<g>
		<polygon style="fill:#2F2166;" points="233.746,326.861 408.342,326.861 436.809,200.003 268.197,200.003 		"/>
		<polygon style="fill:#E7EBF7;" points="246.683,318.009 396.9,318.009 424.576,208.863 276.32,208.863 		"/>
		<g>
			<g>
				<path style="fill:#FFFFFF;" d="M389.225,301.628c-0.844,3.144-4.066,5.689-7.211,5.689H257.171c-3.14,0-5.004-2.545-4.159-5.689
					l20.976-78.288c0.841-3.142,4.072-5.686,7.206-5.686h124.849c3.139,0,5,2.545,4.158,5.686L389.225,301.628z"/>
				<path style="fill:#D4E6F4;" d="M406.043,217.653H281.194c-3.134,0-6.365,2.545-7.206,5.686l-2.829,10.561h136.214l2.828-10.561
					C411.043,220.198,409.182,217.653,406.043,217.653z"/>
				<path style="fill:#F5F9FC;" d="M287.109,225.829c-0.42,1.555-2.022,2.818-3.576,2.818c-1.565,0-2.492-1.264-2.077-2.818
					c0.419-1.561,2.022-2.825,3.587-2.825C286.597,223.004,287.529,224.268,287.109,225.829z"/>
				<path style="fill:#F5F9FC;" d="M294.24,225.829c-0.415,1.555-2.018,2.818-3.587,2.818c-1.554,0-2.475-1.264-2.061-2.818
					c0.42-1.561,2.018-2.825,3.576-2.825C293.732,223.004,294.659,224.268,294.24,225.829z"/>
				<path style="fill:#F5F9FC;" d="M301.124,225.829c-0.414,1.555-2.022,2.818-3.576,2.818c-1.559,0-2.481-1.264-2.067-2.818
					c0.421-1.561,2.018-2.825,3.583-2.825C300.616,223.004,301.543,224.268,301.124,225.829z"/>
			</g>
			<polygon style="fill:#D4E6F4;" points="320.629,299.245 274.996,299.245 278.088,287.717 323.721,287.717 			"/>
			<polygon style="fill:#D4E6F4;" points="372.258,299.245 326.635,299.245 329.727,287.717 375.348,287.717 			"/>
			<polygon style="fill:#D4E6F4;" points="388.752,281.776 268.515,281.776 279.696,240.042 399.932,240.042 			"/>
		</g>
		<g>
			<rect x="326.676" y="182.926" style="fill:#D89551;" width="37" height="126.796"/>
			<rect x="309.234" y="182.926" style="fill:#C17E40;" width="17.441" height="126.796"/>
			<rect x="260.099" y="182.926" style="fill:#D89551;" width="22.433" height="126.796"/>
			<rect x="249.519" y="182.926" style="fill:#A5622B;" width="10.581" height="126.796"/>
			<rect x="286.199" y="211.311" style="fill:#D89551;" width="36.995" height="98.411"/>
			<rect x="268.744" y="211.311" style="fill:#C17E40;" width="17.455" height="98.411"/>
			<rect x="258.979" y="256.442" style="fill:#D89551;" width="18.49" height="53.279"/>
			<rect x="223.03" y="256.442" style="fill:#C17E40;" width="35.949" height="53.279"/>
			<rect x="216.632" y="309.722" style="fill:#A5622B;" width="165.184" height="4.89"/>
			<rect x="331.559" y="187.115" style="fill:#965627;" width="27.463" height="5.118"/>
			<rect x="331.559" y="194.325" style="fill:#965627;" width="27.463" height="5.118"/>
			<rect x="331.559" y="203.862" style="fill:#965627;" width="27.463" height="5.121"/>
			<rect x="331.559" y="211.075" style="fill:#965627;" width="27.463" height="5.115"/>
			<rect x="331.559" y="220.615" style="fill:#965627;" width="27.463" height="5.121"/>
			<rect x="331.559" y="227.825" style="fill:#965627;" width="27.463" height="5.118"/>
			<rect x="331.559" y="237.368" style="fill:#965627;" width="27.463" height="5.118"/>
			<rect x="331.559" y="244.578" style="fill:#965627;" width="27.463" height="5.118"/>
			<rect x="331.559" y="254.118" style="fill:#965627;" width="27.463" height="5.118"/>
			<rect x="331.559" y="261.331" style="fill:#965627;" width="27.463" height="5.119"/>
			<rect x="331.559" y="270.869" style="fill:#965627;" width="27.463" height="5.12"/>
			<rect x="331.559" y="278.079" style="fill:#965627;" width="27.463" height="5.121"/>
			<rect x="331.559" y="287.619" style="fill:#965627;" width="27.463" height="5.121"/>
			<rect x="331.559" y="294.832" style="fill:#965627;" width="27.463" height="5.118"/>
			<rect x="331.559" y="187.115" style="fill:#A5622B;" width="25.252" height="5.118"/>
			<rect x="331.559" y="194.325" style="fill:#A5622B;" width="25.252" height="5.118"/>
			<rect x="331.559" y="203.862" style="fill:#A5622B;" width="25.252" height="5.121"/>
			<rect x="331.559" y="211.075" style="fill:#A5622B;" width="25.252" height="5.115"/>
			<rect x="331.559" y="220.615" style="fill:#A5622B;" width="25.252" height="5.121"/>
			<rect x="331.559" y="227.825" style="fill:#A5622B;" width="25.252" height="5.118"/>
			<rect x="331.559" y="237.368" style="fill:#A5622B;" width="25.252" height="5.118"/>
			<rect x="331.559" y="244.578" style="fill:#A5622B;" width="25.252" height="5.118"/>
			<rect x="331.559" y="254.118" style="fill:#A5622B;" width="25.252" height="5.118"/>
			<rect x="331.559" y="261.331" style="fill:#A5622B;" width="25.252" height="5.119"/>
			<rect x="331.559" y="270.869" style="fill:#A5622B;" width="25.252" height="5.12"/>
			<rect x="331.559" y="278.079" style="fill:#A5622B;" width="25.252" height="5.121"/>
			<rect x="331.559" y="287.619" style="fill:#A5622B;" width="25.252" height="5.121"/>
			<rect x="331.559" y="294.832" style="fill:#A5622B;" width="25.252" height="5.118"/>
			<rect x="291.549" y="216.19" style="fill:#A5622B;" width="5.233" height="14.197"/>
			<rect x="313.883" y="216.19" style="fill:#A5622B;" width="5.234" height="14.197"/>
			<rect x="302.715" y="216.19" style="fill:#A5622B;" width="5.233" height="14.197"/>
			<rect x="289.886" y="216.19" style="fill:#C17E40;" width="5.233" height="14.197"/>
			<rect x="264.623" y="185.135" style="fill:#A5622B;" width="3.248" height="6.517"/>
			<rect x="263.591" y="185.135" style="fill:#C17E40;" width="3.246" height="6.517"/>
			<rect x="275.793" y="185.135" style="fill:#A5622B;" width="3.243" height="6.517"/>
			<rect x="274.766" y="185.135" style="fill:#C17E40;" width="3.241" height="6.517"/>
			<rect x="264.623" y="196.3" style="fill:#A5622B;" width="3.248" height="6.523"/>
			<rect x="263.591" y="196.3" style="fill:#C17E40;" width="3.246" height="6.523"/>
			<rect x="275.793" y="196.3" style="fill:#A5622B;" width="3.243" height="6.523"/>
			<rect x="274.766" y="196.3" style="fill:#C17E40;" width="3.241" height="6.523"/>
			<rect x="312.221" y="216.19" style="fill:#C17E40;" width="5.236" height="14.197"/>
			<rect x="301.057" y="216.19" style="fill:#C17E40;" width="5.237" height="14.197"/>
			<rect x="291.549" y="232.943" style="fill:#A5622B;" width="5.233" height="14.191"/>
			<rect x="313.883" y="232.943" style="fill:#A5622B;" width="5.234" height="14.191"/>
			<rect x="302.715" y="232.943" style="fill:#A5622B;" width="5.233" height="14.191"/>
			<rect x="302.715" y="249.696" style="fill:#A5622B;" width="5.233" height="14.191"/>
			<rect x="302.715" y="283.2" style="fill:#A5622B;" width="5.233" height="14.193"/>
			<rect x="289.886" y="232.943" style="fill:#C17E40;" width="5.233" height="14.191"/>
			<rect x="312.221" y="232.943" style="fill:#C17E40;" width="5.236" height="14.191"/>
			<rect x="301.057" y="232.943" style="fill:#C17E40;" width="5.237" height="14.191"/>
			<rect x="291.549" y="249.696" style="fill:#A5622B;" width="5.233" height="14.191"/>
			<rect x="313.883" y="249.696" style="fill:#A5622B;" width="5.234" height="14.191"/>
			<rect x="289.886" y="249.696" style="fill:#C17E40;" width="5.233" height="14.191"/>
			<rect x="312.221" y="249.696" style="fill:#C17E40;" width="5.236" height="14.191"/>
			<rect x="301.057" y="249.696" style="fill:#C17E40;" width="5.237" height="14.191"/>
			<rect x="291.549" y="266.45" style="fill:#A5622B;" width="5.233" height="14.19"/>
			<rect x="313.883" y="266.45" style="fill:#A5622B;" width="5.234" height="14.19"/>
			<rect x="302.715" y="266.45" style="fill:#A5622B;" width="5.233" height="14.19"/>
			<rect x="289.886" y="266.45" style="fill:#C17E40;" width="5.233" height="14.19"/>
			<rect x="312.221" y="266.45" style="fill:#C17E40;" width="5.236" height="14.19"/>
			<rect x="301.057" y="266.45" style="fill:#C17E40;" width="5.237" height="14.19"/>
			<rect x="291.549" y="283.2" style="fill:#A5622B;" width="5.233" height="14.193"/>
			<rect x="313.883" y="283.2" style="fill:#A5622B;" width="5.234" height="14.193"/>
			<rect x="289.886" y="283.2" style="fill:#C17E40;" width="5.233" height="14.193"/>
			<rect x="312.221" y="283.2" style="fill:#C17E40;" width="5.236" height="14.193"/>
			<rect x="301.057" y="283.2" style="fill:#C17E40;" width="5.237" height="14.193"/>
			<rect x="323.99" y="246.326" style="fill:#EFA96A;" width="31.299" height="63.396"/>
			<rect x="309.234" y="246.326" style="fill:#A5622B;" width="14.756" height="63.396"/>
			<g style="opacity:0.2;">
				<polygon points="309.234,246.326 286.199,309.722 309.234,309.722 				"/>
			</g>
			<g style="opacity:0.2;">
				<polygon points="268.744,211.311 261.534,256.442 268.744,256.442 				"/>
			</g>
			<rect x="262.693" y="260.518" style="fill:#965627;" width="10.707" height="2.207"/>
			<rect x="262.693" y="260.518" style="fill:#A5622B;" width="8.624" height="2.207"/>
			<rect x="262.693" y="266.101" style="fill:#965627;" width="10.707" height="2.206"/>
			<rect x="262.693" y="266.101" style="fill:#A5622B;" width="8.624" height="2.206"/>
			<rect x="262.693" y="271.683" style="fill:#965627;" width="10.707" height="2.212"/>
			<rect x="262.693" y="271.683" style="fill:#A5622B;" width="8.624" height="2.212"/>
			<rect x="262.693" y="277.268" style="fill:#965627;" width="10.707" height="2.21"/>
			<rect x="262.693" y="277.268" style="fill:#A5622B;" width="8.624" height="2.21"/>
			<rect x="262.693" y="282.854" style="fill:#965627;" width="10.707" height="2.206"/>
			<rect x="262.693" y="282.854" style="fill:#A5622B;" width="8.624" height="2.206"/>
			<rect x="262.693" y="288.433" style="fill:#965627;" width="10.707" height="2.21"/>
			<rect x="262.693" y="288.433" style="fill:#A5622B;" width="8.624" height="2.21"/>
			<rect x="262.693" y="294.018" style="fill:#965627;" width="10.707" height="2.213"/>
			<rect x="262.693" y="294.018" style="fill:#A5622B;" width="8.624" height="2.213"/>
			<rect x="262.693" y="299.601" style="fill:#965627;" width="10.707" height="2.212"/>
			<rect x="262.693" y="299.601" style="fill:#A5622B;" width="8.624" height="2.212"/>
			<rect x="326.676" y="249.696" style="fill:#965627;" width="26.297" height="1.164"/>
			<rect x="326.676" y="249.696" style="fill:#A5622B;" width="23.498" height="1.164"/>
			<rect x="326.676" y="255.282" style="fill:#965627;" width="26.297" height="1.163"/>
			<rect x="326.676" y="255.282" style="fill:#A5622B;" width="23.498" height="1.163"/>
			<rect x="326.676" y="260.867" style="fill:#965627;" width="26.297" height="1.163"/>
			<rect x="326.676" y="260.867" style="fill:#A5622B;" width="23.498" height="1.163"/>
			<rect x="326.676" y="266.45" style="fill:#965627;" width="26.297" height="1.163"/>
			<rect x="326.676" y="266.45" style="fill:#A5622B;" width="23.498" height="1.163"/>
			<rect x="326.676" y="272.032" style="fill:#965627;" width="26.297" height="1.163"/>
			<rect x="326.676" y="272.032" style="fill:#A5622B;" width="23.498" height="1.163"/>
			<rect x="326.676" y="277.614" style="fill:#965627;" width="26.297" height="1.167"/>
			<rect x="326.676" y="277.614" style="fill:#A5622B;" width="23.498" height="1.167"/>
			<rect x="326.676" y="283.2" style="fill:#965627;" width="26.297" height="1.166"/>
			<rect x="326.676" y="283.2" style="fill:#A5622B;" width="23.498" height="1.166"/>
			<rect x="326.676" y="288.785" style="fill:#965627;" width="26.297" height="1.163"/>
			<rect x="326.676" y="288.785" style="fill:#A5622B;" width="23.498" height="1.163"/>
		</g>
		<rect x="163.192" y="312.396" style="fill:#2F2166;" width="245.162" height="14.493"/>
	</g>
	<g>
		<g>
			<path style="fill:#FBC6B4;" d="M481.339,245.565c0,0,5.436-7.934,6.536-10.918c1.566-4.234,3.047-17.802,3.047-17.802
				s1.419-10.347,3.502-7.848c0.657,0.799-0.317,6.544-0.771,8.675c-1.106,5.3,2.081,12.778-0.465,21.655
				c-1.046,3.641-6.3,15.813-6.3,15.813L481.339,245.565z"/>
		</g>
		<g>
			<g>
				<path style="fill:#FBC6B4;" d="M485.797,267.03c-3.155-8.473,1.77-16.585,0.76-22.089c-1.196-6.521-12.465-4.969-16.504-3.3
					c-4.046,1.659-10.744,4.23-5.982,12.662c3.313,5.883,2.798,10.136,2.432,16.781l0,0c-0.015,0.175-0.041,0.331-0.054,0.502
					c-0.013-0.002-0.025-0.007-0.025-0.007c0,0.005,0.013,0.007,0.025,0.013c-2.124,18.892-3.104,25.646-4.758,32.794
					c-1.892,8.179-4.122,25.644-0.478,25.733c3.644,0.095,5.683-1.119,3.58-1.768c-2.1-0.65-2.183-0.907-2.115-1.554
					c0.902-8.439,12.865-21.582,13.885-31.607c0.343-3.429,0.58-6.552,0.744-9.3c1.355,7.345,0.358,15.135,0.472,17.715
					c0.388,9.163,2.167,26.481,6.157,26.514c4.241,0.036,6.332-1.253,3.618-1.877c-2.343-0.542-2.251-0.666-2.207-1.303
					c0.567-9.256,4.646-26.358,5.43-37.356C491.683,276.899,485.974,267.518,485.797,267.03z"/>
			</g>
		</g>
		<g>
			<path style="fill:#FE9800;" d="M486.889,269.21c-7.263,5.329-16.593,3.676-20.543,2.83c-1.076,9.512-7.316,45.145-8.047,50.047
				c3.19,1.159,4.247,1.407,5.169,1.407c17.022-25.018,13.675-34.854,13.839-37.603c0.583,3.166,0.7,21.716,1.945,37.603
				c1.123,0.787,4.494,1.815,6.904,0c0.126-0.977,4.554-33.01,4.62-33.91C491.438,280.265,488.544,272.744,486.889,269.21z"/>
		</g>
		<g>
			<path style="fill:#F7422E;" d="M469.182,241.996c0,0,4.932,10.428,12.181,8.851c2.175-0.48,3.89-3.552-2.795-10.976l2.415,0.536
				c0,0,6.434,8.02,8.507,18.946c2.072,10.932,0.026,15.918,0.026,15.918s-2.203,1.885-12.202,2.785
				c-4.463,0.396-8.249,0.08-11.538-0.948c0,0,1.395-12.533,0.593-16.802c0,0,5.922-0.006,5.303-7.923
				c-0.521-6.54-4.424-9.634-4.424-9.634L469.182,241.996z"/>
		</g>
		<g>
			<path style="fill:#F7B2A0;" d="M471.01,235.858c0,0,2.328,3.005,0.363,5.323c-2.012,2.371,8.522,5.262,7.849,3.35
				c-0.867-2.459-2.491-3.664-1.915-6.857L471.01,235.858z"/>
		</g>
		<g>
			<path style="fill:#FBC6B4;" d="M474.933,228.3c2.6,1.547,6.911,9.953,5.097,12.424c-0.8,1.082-5.07,1.018-8.515-2.322
				c-1.409-1.377-3.398-4.102-2.44-7.506C469.506,229.349,471.894,226.497,474.933,228.3z"/>
		</g>
		<g>
			<path style="fill:#1D1B3A;" d="M477.357,228.887c0.728,1.012,0.646,1.302-2.612,2.564c-3.241,1.27-3.866,1.184-3.35,1.904
				c1.535,2.136-0.969,2.206,0.895,4.751c1.856,2.539-1.355,1.458-3.108-0.566c-0.359-0.406-2.28-2.355-1.423-6.218
				C468.763,226.805,474.685,225.174,477.357,228.887z"/>
		</g>
		<g>
			<path style="fill:#1D1B3A;" d="M472.29,238.105c0,0,0.671,0.705,2.354,0c1.683-0.706,3.979-3.014,4.921-2.915
				c0.951,0.092,2.126,4.979,0.423,6.155c-1.702,1.175-6.836,0.018-8.544-2.061C471.076,238.846,472.29,238.105,472.29,238.105z"/>
		</g>
		<g>
			<path style="fill:#F3B294;" d="M477.174,238.811c0,0,0.423-1.573,1.554-1.903c1.122-0.33,1.224,1.076,1.083,1.601
				c-0.138,0.512-1.693,1.807-2.637,1.519C476.232,239.73,476.963,239.36,477.174,238.811z"/>
		</g>
		<g>
			<path style="fill:#2F2166;" d="M481.693,328.037c0,0,3.178,1.385,5.127,0c0,0,3.569,0.534,1.327,1.484
				C485.893,330.481,481.566,331.276,481.693,328.037z"/>
		</g>
		<g>
			<path style="fill:#2F2166;" d="M459.668,328.352c0,0,3.173,1.384,5.125,0c0,0,3.571,0.539,1.324,1.493
				C463.871,330.799,459.535,331.591,459.668,328.352z"/>
		</g>
		<g>
			<path style="fill:#FBC6B4;" d="M468.827,246.293c0,0-7.972-5.374-10.101-7.739c-3.016-3.363-9.391-15.432-9.391-15.432
				s-5.129-9.093-6.144-6.005c-0.318,0.984,2.71,5.968,3.908,7.781c2.984,4.521,3.208,14.155,8.415,19.961
				c2.528,2.817,11.677,12.383,11.677,12.383L468.827,246.293z"/>
		</g>
		<g>
			<path style="fill:#A6BFED;" d="M498.269,224.911c0,0,4.722,0.754,12.009-1.518c0,0-1.929,6.564,0.625,10.574
				c0,0-14.377,1.768-16.26,4.683C494.643,238.649,499.229,231.045,498.269,224.911z"/>
		</g>
		<g>
			<path style="fill:#A6BFED;" d="M443.366,254.199c0,0,4.725,0.752,12.009-1.52c0,0-1.929,6.568,0.624,10.574
				c0,0-14.373,1.77-16.257,4.682C439.742,267.936,444.325,260.329,443.366,254.199z"/>
		</g>
		<g>
			<path style="fill:#A6BFED;" d="M502.233,206.997c0,0,3.243,0.515,8.24-1.04c0,0-1.319,4.506,0.429,7.257
				c0,0-9.864,1.211-11.153,3.211C499.749,216.425,502.894,211.205,502.233,206.997z"/>
		</g>
		<g>
			<path style="fill:#A6BFED;" d="M430.445,240.479c0,0-0.791-4.546-5.144-10.484c0,0,6.595-0.294,9.456-3.886
				c0,0,6.115,12.565,9.371,13.37C444.129,239.479,435.75,237.68,430.445,240.479z"/>
		</g>
		<g>
			<polygon style="fill:#D2CDF9;" points="468.827,197.97 461.03,197.539 460.922,205.798 468.679,208.858 			"/>
		</g>
		<g>
			<polygon style="fill:#A6BFED;" points="483.204,215.132 475.41,214.7 475.302,222.961 483.062,226.021 			"/>
		</g>
		<g>
			<polygon style="fill:#1D1B3A;" points="477.307,285.892 479.418,282.949 477.98,298.593 			"/>
		</g>
		<g>
			<path style="fill:#FFFFFF;" d="M466.174,285.544l-0.048-0.404c1.297-0.161,2.226-0.655,2.766-1.464
				c0.897-1.358,0.396-3.174,0.392-3.192l0.393-0.111c0.023,0.082,0.555,2.012-0.443,3.523
				C468.627,284.81,467.598,285.365,466.174,285.544z"/>
		</g>
		<g>
			<path style="fill:#FFFFFF;" d="M488.744,283.758c-1.423-0.18-2.45-0.734-3.054-1.648c-1-1.515-0.468-3.442-0.443-3.526
				l0.393,0.111c-0.007,0.021-0.508,1.837,0.392,3.189c0.537,0.812,1.469,1.307,2.764,1.47L488.744,283.758z"/>
		</g>
		<g>
			<path style="fill:#D4E6F4;" d="M424.945,201.487l3.076,18.786l89.086-14.597c0.177,0.074,0.354,0.104,0.523,0.074
				c1.549-0.254,2.12-4.663,1.272-9.851c-0.853-5.19-2.799-9.189-4.352-8.932c-0.073,0.013-0.146,0.04-0.214,0.074l-0.03-0.196
				L424.945,201.487z"/>
			<g style="opacity:0.3;">
				<path d="M517.107,205.677c0.177,0.074,0.354,0.104,0.523,0.074c1.549-0.254,2.12-4.663,1.272-9.851
					c-0.113-0.684-0.247-1.343-0.391-1.979l-91.895,17.772l1.403,8.579L517.107,205.677z"/>
			</g>
			<path style="fill:#A6BFED;" d="M425.112,201.456c1.554-0.254,3.501,3.744,4.352,8.931c0.849,5.188,0.28,9.599-1.272,9.855
				c-1.549,0.254-3.499-3.747-4.345-8.936C422.996,206.121,423.564,201.71,425.112,201.456z"/>
		</g>
		<g>
			<g>
				<path style="fill:#EDA503;" d="M469.953,234.162c0,0,9.597-2.712,9.152-5.704c-0.276-1.845-5.847-1.12-5.847-1.12
					L469.953,234.162z"/>
			</g>
			<g>
				<path style="fill:#FFB502;" d="M476.238,228.723c-0.768,2.889-3.032,4.478-8.915,6.354c0,0-3.185-5.704,0.943-8.727
					C471.907,223.691,476.729,226.877,476.238,228.723z"/>
			</g>
		</g>
	</g>
	<g>
		<g>
			<path style="fill:#738E11;" d="M414.855,253.156c0,0,4.013,31.307-0.993,49.924h2.08
				C415.942,303.08,420.494,276.158,414.855,253.156z"/>
		</g>
		<g>
			<path style="fill:#738E11;" d="M430.682,268.652c0,0-13.04,19.168-14.059,33.603l-1.895-0.855
				C414.729,301.399,418.648,281.631,430.682,268.652z"/>
		</g>
		<g>
			<path style="fill:#82A816;" d="M432.039,265.364c0,0-15.218,6.393-16.137,29.449l-1.049,1.53
				C414.854,296.344,412.111,273.348,432.039,265.364z"/>
		</g>
		<g>
			<path style="fill:#82A816;" d="M403.016,264.332c0,0,13.447,9.576,9.279,32.272l0.688,1.723
				C412.982,298.326,420.705,276.492,403.016,264.332z"/>
		</g>
		<g>
			<path style="fill:#738E11;" d="M400.436,272.976c0,0,13.04,19.166,14.06,33.599l1.893-0.853
				C416.389,305.721,412.469,285.95,400.436,272.976z"/>
		</g>
		<g>
			<path style="fill:#738E11;" d="M415.92,231.878c-25.381,19.064-15.385,33.802-12.201,35.03c7.473,2.885,9.686-4.895,11.916-4.893
				c2.229,0,4.442,7.777,11.915,4.893C430.734,265.68,441.303,250.941,415.92,231.878z"/>
		</g>
		<g>
			<path style="fill:#82A816;" d="M415.272,239.569c0,0,2.112,8.585,0.762,20.745C416.034,260.315,420.146,252.896,415.272,239.569z
				"/>
		</g>
		<g>
			<path style="fill:#82A816;" d="M420.303,244.813c0,0-0.633,4.565-3.092,6.736l0.063,1
				C417.273,252.549,420.509,249.426,420.303,244.813z"/>
		</g>
		<g>
			<path style="fill:#82A816;" d="M413.12,242.186c0,0,1.204,4.45,3.923,6.289l0.061,1.002
				C417.104,249.477,413.5,246.791,413.12,242.186z"/>
		</g>
		<g>
			<path style="fill:#82A816;" d="M426.168,249.805c0,0-4.181,5.689-9.074,6.814l-0.645,1.396
				C416.449,258.016,423.082,256.171,426.168,249.805z"/>
		</g>
		<g>
			<path style="fill:#82A816;" d="M406.518,249.455c0,0,4.971,8.56,9.948,9.078l-0.055,0.844
				C416.411,259.377,409.1,257.59,406.518,249.455z"/>
		</g>
		<g>
			<path style="fill:#82A816;" d="M411.189,247.973c0,0,0.824,5.229,5.641,7.332l0.135,0.715
				C416.965,256.02,411.566,255.036,411.189,247.973z"/>
		</g>
		<g>
			<path style="fill:#82A816;" d="M418.305,241.082c0,0-0.266,3.08-1.475,4.519l0.043,0.679
				C416.873,246.279,418.46,244.203,418.305,241.082z"/>
		</g>
		<g>
			<g>
				<path style="fill:#738E11;" d="M438.691,287.914c4.254-18.931-6.238-21.826-8.209-21.136c-4.618,1.62-2.564,6.114-3.603,6.999
					c-1.04,0.885-5.149-1.857-7.483,2.447C418.401,278.059,419.326,289.103,438.691,287.914z"/>
			</g>
			<g>
				<path style="fill:#82A816;" d="M437.805,286.047c0,0-5.322-3.83-10.406-11.346C427.398,274.701,428.644,280.867,437.805,286.047
					z"/>
			</g>
			<g>
				<path style="fill:#82A816;" d="M432.445,285.508c0,0-1.838-2.885-1.493-5.293l-0.519-0.534
					C430.434,279.681,430.107,283.002,432.445,285.508z"/>
			</g>
			<g>
				<path style="fill:#82A816;" d="M437.764,283.535c0,0-2.822-1.933-5.241-1.666l-0.517-0.533
					C432.006,281.336,435.335,281.117,437.764,283.535z"/>
			</g>
			<g>
				<path style="fill:#82A816;" d="M426.729,285.508c0,0-0.374-5.221,1.847-8.211l-0.308-1.099
					C428.269,276.198,425.412,280.431,426.729,285.508z"/>
			</g>
			<g>
				<path style="fill:#82A816;" d="M437.996,276.255c0,0-6.928-2.442-9.984-0.341l-0.375-0.502
					C427.637,275.412,432.626,272.904,437.996,276.255z"/>
			</g>
			<g>
				<path style="fill:#82A816;" d="M436.07,279.34c0,0-2.979-2.557-6.715-1.428l-0.419-0.337
					C428.937,277.575,432.457,275.533,436.07,279.34z"/>
			</g>
			<g>
				<path style="fill:#82A816;" d="M435.368,286.652c0,0-1.332-1.867-1.343-3.26l-0.352-0.361
					C433.674,283.031,433.779,284.963,435.368,286.652z"/>
			</g>
		</g>
		<g>
			<g>
				<path style="fill:#82A816;" d="M401.26,281.516c18.516,2.711,20.531-7.596,19.728-9.438c-1.896-4.326-6.068-2.022-6.995-2.955
					c-0.927-0.933,1.412-5.089-2.896-7.017C409.258,261.283,398.699,262.979,401.26,281.516z"/>
			</g>
			<g>
				<path style="fill:#738E11;" d="M402.988,280.527c0,0,3.298-5.396,10.152-10.839
					C413.141,269.689,407.303,271.338,402.988,280.527z"/>
			</g>
			<g>
				<path style="fill:#738E11;" d="M403.117,275.331c0,0,2.639-1.979,4.978-1.823l0.48-0.535
					C408.574,272.973,405.357,272.9,403.117,275.331z"/>
			</g>
			<g>
				<path style="fill:#738E11;" d="M405.4,280.303c0,0,1.654-2.853,1.221-5.161l0.477-0.537
					C407.098,274.604,407.555,277.79,405.4,280.303z"/>
			</g>
			<g>
				<path style="fill:#738E11;" d="M402.698,269.839c0,0,4.997-0.745,8.03,1.175l1.038-0.377
					C411.767,270.637,407.484,268.197,402.698,269.839z"/>
			</g>
			<g>
				<path style="fill:#738E11;" d="M412.422,279.994c0,0,1.839-6.84-0.404-9.625l0.458-0.397
					C412.476,269.972,415.249,274.586,412.422,279.994z"/>
			</g>
			<g>
				<path style="fill:#738E11;" d="M409.312,278.367c0,0,2.242-3.053,0.885-6.557l0.294-0.432
					C410.49,271.379,412.713,274.618,409.312,278.367z"/>
			</g>
			<g>
				<path style="fill:#738E11;" d="M402.232,278.227c0,0,1.694-1.418,3.033-1.528l0.325-0.363
					C405.591,276.335,403.737,276.574,402.232,278.227z"/>
			</g>
		</g>
		<g>
			<path style="fill:#738E11;" d="M385.959,268.37c4.354,18.905,15.067,16.978,16.543,15.503c3.464-3.459-0.33-6.623,0.22-7.869
				c0.556-1.246,5.449-0.553,5.69-5.443C408.514,268.479,402.902,258.918,385.959,268.37z"/>
		</g>
		<g>
			<path style="fill:#82A816;" d="M387.563,269.667c0,0,6.459,1.153,14.295,5.728C401.857,275.395,398.066,270.375,387.563,269.667z
				"/>
		</g>
		<g>
			<path style="fill:#82A816;" d="M392.633,267.837c0,0,2.904,1.804,3.635,4.124l0.697,0.26
				C396.965,272.221,395.822,269.084,392.633,267.837z"/>
		</g>
		<g>
			<path style="fill:#82A816;" d="M388.688,271.914c0,0,3.381,0.523,5.445-0.766l0.697,0.259
				C394.83,271.407,391.924,273.044,388.688,271.914z"/>
		</g>
		<g>
			<path style="fill:#82A816;" d="M397.781,265.363c0,0,2.598,4.545,1.891,8.203l0.751,0.857
				C400.423,274.424,401.168,269.37,397.781,265.363z"/>
		</g>
		<g>
			<path style="fill:#82A816;" d="M391.628,278.58c0,0,7.305-0.795,9.15-4.014l0.555,0.29
				C401.333,274.856,397.92,279.275,391.628,278.58z"/>
		</g>
		<g>
			<path style="fill:#82A816;" d="M392.031,274.965c0,0,3.793,1.017,6.668-1.617l0.525,0.122
				C399.225,273.47,396.934,276.836,392.031,274.965z"/>
		</g>
		<g>
			<path style="fill:#82A816;" d="M389.5,268.068c0,0,2.01,1.107,2.621,2.357l0.471,0.176
				C392.592,270.602,391.666,268.903,389.5,268.068z"/>
		</g>
		<g>
			<g>
				<path style="fill:#82A816;" d="M439.672,263.516c-11.05-7.527-15.569-1.54-15.624-0.103c-0.136,3.371,3.267,3.196,3.569,4.086
					c0.301,0.889-2.496,2.828-0.334,5.414C428.207,274.016,435.521,276.227,439.672,263.516z"/>
			</g>
			<g>
				<path style="fill:#738E11;" d="M438.254,263.612c0,0-3.808,2.436-9.912,3.788C428.342,267.4,432.607,268.167,438.254,263.612z"
					/>
			</g>
			<g>
				<path style="fill:#738E11;" d="M436.545,266.908c0,0-2.313,0.448-3.768-0.385l-0.477,0.195
					C432.301,266.719,434.346,267.77,436.545,266.908z"/>
			</g>
			<g>
				<path style="fill:#738E11;" d="M436.63,263c0,0-1.952,1.318-2.395,2.935l-0.475,0.196
					C433.76,266.131,434.465,263.943,436.63,263z"/>
			</g>
			<g>
				<path style="fill:#738E11;" d="M435.096,270.57c0,0-3.441-1.085-4.793-3.268l-0.783-0.082
					C429.52,267.221,431.509,270.127,435.096,270.57z"/>
			</g>
			<g>
				<path style="fill:#738E11;" d="M432.025,261.002c0,0-3.321,3.822-2.753,6.313l-0.416,0.112
					C428.855,267.427,428.517,263.596,432.025,261.002z"/>
			</g>
			<g>
				<path style="fill:#738E11;" d="M433.515,263.022c0,0-2.396,1.259-2.618,3.937l-0.326,0.184
					C430.57,267.143,430.157,264.369,433.515,263.022z"/>
			</g>
			<g>
				<path style="fill:#738E11;" d="M438.021,265.326c0,0-1.534,0.379-2.429,0.031l-0.32,0.135
					C435.271,265.492,436.535,265.918,438.021,265.326z"/>
			</g>
		</g>
		<g>
			<g>
				<path style="fill:#663006;" d="M418.842,294.057c0,1.102,0.979,1.992,2.184,1.992c1.207,0,2.184-0.891,2.184-1.992
					c0-1.099-0.977-1.992-2.184-1.992C419.82,292.065,418.842,292.958,418.842,294.057z"/>
			</g>
			<g>
				<path style="fill:#663006;" d="M412.393,292.113c0,2.174,1.932,3.935,4.318,3.935c2.384,0,4.314-1.762,4.314-3.935
					s-1.931-3.936-4.314-3.936C414.324,288.178,412.393,289.94,412.393,292.113z"/>
			</g>
			<g>
				<path style="fill:#663006;" d="M410.242,293.025c0,1.064,0.947,1.927,2.113,1.927c1.168,0,2.113-0.862,2.113-1.927
					c0-1.066-0.945-1.928-2.113-1.928C411.189,291.098,410.242,291.959,410.242,293.025z"/>
			</g>
			<g>
				<path style="fill:#663006;" d="M408.614,292.662c0,0.82,0.726,1.482,1.628,1.482c0.897,0,1.625-0.662,1.625-1.482
					c0-0.82-0.728-1.482-1.625-1.482C409.34,291.18,408.614,291.842,408.614,292.662z"/>
			</g>
			<g>
				<path style="fill:#663006;" d="M406.293,293.111c0,0.941,0.84,1.709,1.875,1.709c1.035,0,1.872-0.768,1.872-1.709
					c0-0.943-0.837-1.707-1.872-1.707C407.133,291.404,406.293,292.168,406.293,293.111z"/>
			</g>
		</g>
		<g>
			<path style="fill:#F7422E;" d="M425.6,293.267h-8.46h-2.737h-8.455c0,0-0.606,22.166,6.048,33.248h2.407h2.737h2.407
				C426.203,315.433,425.6,293.267,425.6,293.267z"/>
		</g>
	</g>
	<g>
		<polygon style="fill:#A5622B;" points="102.972,326.809 107.232,326.809 112.277,298.18 108.021,298.18 		"/>
		<polygon style="fill:#D89551;" points="171.099,327.022 166.837,327.022 161.794,298.393 166.05,298.393 		"/>
		<polygon style="fill:#A5622B;" points="170.771,306.732 100.389,306.732 100.598,202.979 170.771,216.385 		"/>
		<polygon style="fill:#A5622B;" points="149.613,327.022 145.356,327.022 140.311,298.393 144.57,298.393 		"/>
		<polygon style="fill:#D89551;" points="202.29,327.022 198.031,327.022 192.985,298.393 197.242,298.393 		"/>
		<polygon style="fill:#D89551;" points="206.376,306.973 134.208,306.647 100.598,202.979 168.083,203.284 		"/>
		<polygon style="fill:#FFFFFF;" points="202.596,303.238 135.609,302.934 104.415,206.713 167.053,206.997 		"/>
		<polygon style="fill:#C992D3;" points="167.053,221.346 116.279,221.296 114.879,216.969 165.235,216.969 		"/>
		<g>
			<g>
				<path style="fill:#728EE1;" d="M177.224,274.768l6.857,19.359l-31.539-0.311l-6.855-19.359L177.224,274.768z M182.225,292.745
					l-5.884-16.622l-28.797-0.285l5.885,16.623L182.225,292.745z"/>
			</g>
			<g>
				<path style="fill:#728EE1;" d="M176.566,256.835l6.854,19.356l-46.842-0.461l-6.854-19.358L176.566,256.835z M181.565,274.811
					l-5.886-16.621l-44.099-0.436l5.886,16.623L181.565,274.811z"/>
			</g>
			<g>
				<path style="fill:#728EE1;" d="M149.552,226.197l11.276,31.846l-18.666-0.185l-11.276-31.845L149.552,226.197z M158.972,256.661
					l-10.306-29.11l-15.925-0.156l10.308,29.11L158.972,256.661z"/>
			</g>
			<g>
				<polygon style="fill:#FFFFFF;" points="135.67,261.598 138.812,270.477 132.299,270.412 129.154,261.531 				"/>
			</g>
			<g>
				<polygon style="fill:#FFFFFF;" points="152.936,252.857 156.082,261.738 149.569,261.676 146.423,252.793 				"/>
			</g>
			<g>
				<polygon style="fill:#FFFFFF;" points="167.651,270.078 170.796,278.959 164.284,278.896 161.138,270.015 				"/>
			</g>
			<g>
				<polygon style="fill:#FFFFFF;" points="162.629,286.279 165.775,295.162 159.259,295.098 156.114,286.215 				"/>
			</g>
			<g>
				<polygon style="fill:#FFFFFF;" points="138.202,235.582 141.345,244.461 134.833,244.396 131.689,235.518 				"/>
			</g>
			<g>
				<path style="fill:#728EE1;" d="M172.284,284.932l3.105,8.767l-6.855-0.066l-3.104-8.768L172.284,284.932z M174.462,293.009
					l-2.622-7.4l-5.484-0.055l2.621,7.4L174.462,293.009z"/>
			</g>
			<g>
				<path style="fill:#728EE1;" d="M153.151,237.992l5.311,14.999l-10.205-0.101l-5.313-14.999L153.151,237.992z M157.534,252.301
					l-4.828-13.633l-8.835-0.088l4.827,13.633L157.534,252.301z"/>
			</g>
			<g>
				<polygon style="fill:#FFFFFF;" points="145.125,240.754 147.695,248.01 146.037,247.993 143.467,240.738 				"/>
			</g>
			<g>
				<polygon style="fill:#728EE1;" points="150.679,272.637 151.587,275.197 150.9,275.191 149.994,272.63 				"/>
			</g>
			<g>
				<polygon style="fill:#728EE1;" points="149.23,268.538 150.134,271.097 149.448,271.09 148.544,268.531 				"/>
			</g>
			<g>
				<polygon style="fill:#728EE1;" points="147.775,264.438 148.684,266.998 147.997,266.99 147.09,264.432 				"/>
			</g>
			<g>
				<polygon style="fill:#728EE1;" points="167.408,261.993 170.252,270.02 169.566,270.014 166.724,261.986 				"/>
			</g>
			<g>
				<polygon style="fill:#728EE1;" points="146.326,260.339 147.233,262.898 146.546,262.892 145.639,260.332 				"/>
			</g>
			<g>
				<polygon style="fill:#728EE1;" points="145.056,256.752 145.781,258.802 145.095,258.794 144.369,256.744 				"/>
			</g>
			<g>
				<polygon style="fill:#728EE1;" points="148.047,237.941 148.289,238.624 139.231,238.535 138.991,237.854 				"/>
			</g>
			<g>
				<polygon style="fill:#F3F6FE;" points="168.694,282.854 169.932,286.352 168,286.332 166.76,282.836 				"/>
			</g>
		</g>
	</g>
	<g>
		<g>
			<path style="fill:#F7B2A0;" d="M170.324,255.155c0,0,2.328-1.578,4.402-1.262c2.413,0.367,1.932,0.537,3.917,0.964l-0.283,2.132
				c0,0-1.432-0.033-1.847-0.244c-0.69-0.355-1.085-0.393-2.432-0.917c-1.301-0.508-1.278-0.83-2.416-0.485
				C169.989,255.854,170.324,255.155,170.324,255.155z"/>
		</g>
		<g>
			<path style="fill:#F7B2A0;" d="M175.894,255.602c0,0-3.701,1.134-2.888,1.681c0.814,0.554,3.81-0.863,5.363-0.954
				L175.894,255.602z"/>
		</g>
		<g>
			<g>
				<path style="fill:#515CB6;" d="M197.112,238.253c4.225-0.809,5.927,1.095,6.336,3.697c0.648,3.99,0.733,10.623-4.928,15.756
					c-5.659,5.142-21.789-0.387-21.789-0.387s-0.756-1.988,0.606-3.108c0,0,12.518,0.624,16.441-5
					C195.67,246.489,193.093,239.027,197.112,238.253z"/>
			</g>
		</g>
		<g>
			<g>
				<g>
					<path style="fill:#FBC6B4;" d="M224.604,330.788c1.272-1.452,1.223-1.675,0.868-2.138c-0.304-0.4-0.661-0.784-1.056-1.171
						l2.803-1.703c0.566,1.022,1,1.955,1.21,2.718C228.218,328.76,226.566,330.933,224.604,330.788z"/>
				</g>
			</g>
			<g>
				<g>
					<path style="fill:#1D1B3A;" d="M228.429,328.494c0.006-0.025,0.029-0.057,0.029-0.057c1.59,2.376-2.045,3.782-4.172,4.09
						c-2.131,0.31,0.318-1.739,0.318-1.739C226.566,330.933,228.218,328.76,228.429,328.494z"/>
				</g>
			</g>
		</g>
		<g>
			<g>
				<path style="fill:#FE9800;" d="M228.078,325.253c0.38,1.372-2.66,3.555-3.517,2.832c-7.329-6.229-15.173-19.796-18.1-25.341
					c-0.134-0.245-0.266-0.475-0.378-0.682c-1.466-2.394-2.301-1.899-7.261-12.972c-1.611-3.579-2.582-9.843-2.582-9.843
					l4.919-2.036l11.016-4.558c3.935,3.744,5.568,14.361,6.423,18.748c0.702,3.707,1.52,9.692,2.296,12.577
					C223.629,314.05,225.608,316.096,228.078,325.253z"/>
			</g>
		</g>
		<g>
			<g>
				<g>
					<path style="fill:#FBC6B4;" d="M195.9,333.5c1.778-0.783,1.815-1.017,1.691-1.58c-0.107-0.477-0.277-0.987-0.467-1.497
						l3.255-0.38c0.087,1.16,0.087,2.185-0.046,2.978C200.04,333.172,197.632,334.452,195.9,333.5z"/>
				</g>
			</g>
			<g>
				<g>
					<path style="fill:#1D1B3A;" d="M200.333,333.021c0.025-0.026,0.056-0.045,0.056-0.045c0.456,2.833-3.43,2.581-5.494,1.974
						c-2.078-0.615,1.004-1.449,1.004-1.449C197.632,334.452,200.04,333.172,200.333,333.021z"/>
				</g>
			</g>
		</g>
		<g>
			<g>
				<path style="fill:#1D1B3A;" d="M207.43,298.455c-0.438,1.305-0.913,2.447-1.347,3.607c-1.466-2.394-2.301-1.899-7.261-12.972
					c-1.611-3.579-2.582-9.843-2.582-9.843l4.919-2.036l4.998,0.38C208.171,282.646,208.817,294.313,207.43,298.455z"/>
			</g>
		</g>
		<g>
			<g>
				<path style="fill:#FFAA3B;" d="M206.876,295.202c-0.909,3.67-2.945,7.453-2.945,12.596c0,10.469-0.985,12.786-2.544,22.129
					c-0.169,1.087-2.47,1.771-3.701,1.521c-0.194-0.037-0.362-0.091-0.475-0.19c-0.116-0.054-0.194-0.132-0.231-0.223
					c-4.044-8.72-6.764-23.559-7.125-29.808c-0.209-3.688-0.114-3.232,0.02-16.378c0.038-3.932,1.748-10.028,1.748-10.028
					l16.34,0.531C209.974,280.404,207.923,290.869,206.876,295.202z"/>
			</g>
		</g>
		<g>
			<g>
				<path style="fill:#FFFFFF;" d="M197.686,331.447c-0.194-0.037-0.362-0.091-0.475-0.19c-2.474-6.893-3.534-14.228-4.449-20.573
					c-0.776-5.376-1.65-11.489-1.673-17.493c-0.019-6.577,1.045-12.368,3.154-17.23c0.039-0.099,0.153-0.136,0.248-0.099
					c0.095,0.043,0.151,0.154,0.114,0.252c-2.086,4.804-3.154,10.561-3.132,17.077c0.017,5.983,0.893,12.08,1.672,17.455
					C194.074,317.048,195.156,324.5,197.686,331.447z"/>
			</g>
		</g>
		<g>
			<path style="fill:#1D1B3A;" d="M216.401,281.305c-0.993-3.502-2.346-6.866-4.23-8.657l-6.376,2.636l-14.174-0.465
				c0,0-0.363,1.295-0.76,3.071C197.091,282.885,207.727,284.719,216.401,281.305z"/>
		</g>
		<g>
			<g>
				<path style="fill:#6196EB;" d="M191.541,248.369c-2.486,3.105-4.096,9.297-0.678,28.279c0.755,4.165,26.28,5.182,25.772,0.964
					c-1.58-13.081-6.974-20.751-12.559-29.851C202.544,245.294,196.441,242.188,191.541,248.369z"/>
			</g>
		</g>
		<g>
			<path style="fill:#F7B2A0;" d="M170.362,266.443c0,0-1.529-2.742-0.611-2.538c0.918,0.203,0.793,1.465,2.28,2.538
				c1.488,1.076-2.228,0.209-2.228,0.209L170.362,266.443z"/>
		</g>
		<g>
			<g>
				<g>
					<path style="fill:#F7B2A0;" d="M171.569,266.267c0,0-6.449-3.59-5.586-1.582c0.858,2.011,1.715,3.609,5.184,3.847
						L171.569,266.267z"/>
				</g>
			</g>
			<g>
				<g>
					<path style="fill:#515CB6;" d="M191.521,250.05c4.267-0.587,5.899,1.231,6.256,3.844c0.553,4,0.483,10.638-5.292,15.636
						c-5.781,5.01-21.777-0.886-21.777-0.886s-0.521-2.154,0.86-3.245c0,0,12.51,3.001,16.56-2.531
						C190.083,260.19,186.88,250.686,191.521,250.05z"/>
				</g>
			</g>
		</g>
		<g>
			<g>
				<path style="fill:#1D1B3A;" d="M189.286,229.809c-2.477,0.989-5.118,3.897-3.823,8.961c1.296,5.052,1.173,5.186-0.032,7.475
					c-3.135,5.89,8.181,2.488,6.493,8.188c-4.661,15.723,15.204,8.236,18.05,3.159c3.209-5.732,2.693-13.835-3.22-15.897
					c-1.958-0.67-0.455-7.386-4.814-7.514C197.579,234.04,198.822,226.017,189.286,229.809z"/>
			</g>
		</g>
	</g>
	<g>
		<g>
			<g>
				<path style="fill:#2F2166;" d="M110.5,266.561l0.264,1.449c0,0,1.041,0.176,2.05,0.489c1.008,0.288,1.979,0.702,1.979,0.702
					l0.087-1.412c0,0-1.057-0.437-2.158-0.736C111.625,266.731,110.5,266.558,110.5,266.561z"/>
			</g>
			<g>
				<path style="fill:#2F2166;" d="M103.799,266.737l0.749,1.348c0,0,0.256-0.064,0.638-0.153c0.388-0.084,0.913-0.104,1.438-0.165
					c0.52-0.079,1.048-0.031,1.444-0.031c0.395,0.009,0.656,0.014,0.656,0.014l-0.431-1.434c0,0-0.282-0.003-0.707-0.003
					c-0.427,0.003-0.996-0.039-1.557,0.057c-0.559,0.072-1.128,0.1-1.543,0.195C104.075,266.673,103.799,266.737,103.799,266.737z"
					/>
			</g>
			<g>
				<path style="fill:#2F2166;" d="M98.013,270.015l1.145,1.068c0,0,0.186-0.185,0.463-0.464c0.254-0.316,0.714-0.576,1.146-0.878
					c0.833-0.655,1.837-1.013,1.837-1.013l-0.892-1.27c0,0-1.071,0.396-1.965,1.107c-0.469,0.324-0.96,0.615-1.235,0.945
					C98.216,269.814,98.013,270.015,98.013,270.015z"/>
			</g>
			<g>
				<path style="fill:#2F2166;" d="M94.397,275.709l1.456,0.579c0,0,0.433-0.953,0.87-1.91c0.185-0.492,0.555-0.87,0.753-1.208
					c0.214-0.322,0.362-0.537,0.362-0.537l-1.269-0.923c0,0-0.161,0.234-0.403,0.593c-0.215,0.369-0.626,0.806-0.829,1.337
					C94.868,274.675,94.397,275.709,94.397,275.709z"/>
			</g>
			<g>
				<path style="fill:#2F2166;" d="M92.765,282.125l1.531,0.33c0,0,0.175-1.079,0.344-2.153c0.253-1.038,0.566-2.048,0.572-2.048
					l-1.505-0.452c0,0-0.338,1.079-0.6,2.158C92.933,281.046,92.765,282.125,92.765,282.125z"/>
			</g>
			<g>
				<path style="fill:#2F2166;" d="M91.74,288.37l1.457,0.655c-0.013-0.003,0.112-0.267,0.161-0.686
					c0.066-0.42,0.154-0.979,0.244-1.538c0.177-1.116,0.356-2.232,0.356-2.232l-1.531-0.341c0,0-0.161,1.037-0.322,2.075
					c-0.083,0.52-0.163,1.04-0.224,1.427C91.837,288.121,91.723,288.365,91.74,288.37z"/>
			</g>
			<g>
				<path style="fill:#2F2166;" d="M89.624,294.232l1.263,1.074c0.057,0.03,0.471-1.021,0.939-2.045
					c0.521-1.007,0.769-2.114,0.769-2.114l-1.407-0.8c0,0-0.224,1.035-0.698,1.977C90.06,293.279,89.678,294.261,89.624,294.232z"/>
			</g>
		</g>
		<g>
			<g>
				<path style="fill:#2F2166;" d="M85.448,298.789l0.933,1.398c-0.035-0.045,1.003-0.555,1.774-1.382
					c0.796-0.795,1.562-1.617,1.512-1.659l-1.161-1.191c0.046,0.039-0.664,0.809-1.407,1.553
					C86.387,298.279,85.413,298.752,85.448,298.789z"/>
			</g>
			<g>
				<path style="fill:#2F2166;" d="M79.551,300.648l0.512,1.564c0,0,0.278-0.03,0.698-0.078c0.419-0.056,0.986-0.096,1.52-0.269
					c0.545-0.142,1.091-0.285,1.499-0.392c0.387-0.171,0.644-0.285,0.644-0.285l-0.796-1.463c0,0-0.239,0.106-0.601,0.26
					c-0.385,0.096-0.893,0.229-1.398,0.352c-0.505,0.162-1.031,0.196-1.424,0.24C79.816,300.623,79.551,300.648,79.551,300.648z"/>
			</g>
			<g>
				<path style="fill:#2F2166;" d="M73.323,300.332l0.04,1.595c0,0,1.117,0.168,2.243,0.257c0.565,0.039,1.126,0.079,1.551,0.109
					c0.419,0.02,0.703,0.006,0.703,0.006l-0.356-1.592c0,0-0.265,0.012-0.657-0.008c-0.393-0.031-0.916-0.07-1.439-0.115
					C74.36,300.495,73.323,300.332,73.323,300.332z"/>
			</g>
			<g>
				<path style="fill:#2F2166;" d="M66.98,299.373l-0.125,1.564c0,0,0.259,0.023,0.649,0.053c0.397,0.06,0.926,0.138,1.454,0.216
					c1.11,0.185,2.219,0.375,2.219,0.375l0.115-1.575c0,0-1.042-0.17-2.082-0.35c-0.551-0.078-1.108-0.162-1.516-0.224
					C67.263,299.398,66.98,299.373,66.98,299.373z"/>
			</g>
			<g>
				<path style="fill:#2F2166;" d="M60.864,302.727l1.302,0.878c0,0,0.559-0.845,1.298-1.493c0.723-0.677,1.625-0.993,1.625-0.993
					l-0.557-1.468c0,0-1.199,0.436-2.094,1.275C61.519,301.729,60.864,302.727,60.864,302.727z"/>
			</g>
			<g>
				<path style="fill:#2F2166;" d="M58.561,309.12l1.545,0.263c0,0,0.052-0.263,0.126-0.648c0.087-0.386,0.152-0.918,0.325-1.407
					c0.258-1.021,0.681-1.96,0.681-1.96l-1.441-0.624c0.003,0-0.469,1.06-0.75,2.165c-0.189,0.545-0.259,1.104-0.352,1.519
					C58.615,308.841,58.561,309.12,58.561,309.12z"/>
			</g>
			<g>
				<path style="fill:#2F2166;" d="M58.154,315.749l1.568-0.028c0,0-0.058-1.08,0.008-2.148c0.02-0.531,0.038-1.068,0.049-1.468
					c0.043-0.397,0.071-0.663,0.071-0.663l-1.564-0.14c0,0-0.028,0.276-0.071,0.693c-0.013,0.42-0.032,0.974-0.052,1.533
					C58.097,314.641,58.154,315.749,58.154,315.749z"/>
			</g>
		</g>
	</g>
	<g>
		<g>
			<path style="fill:#FE9800;" d="M502.814,297.815c1.389,0.023,2.496,1.171,2.474,2.559c-0.024,1.386-1.169,2.498-2.558,2.473
				c-1.385-0.023-2.496-1.171-2.475-2.558C500.281,298.897,501.43,297.793,502.814,297.815z M502.742,302.154
				c1.006,0.018,1.838-0.787,1.857-1.794c0.017-1.003-0.788-1.84-1.796-1.857c-1.004-0.015-1.838,0.791-1.853,1.798
				C500.933,301.306,501.734,302.138,502.742,302.154z"/>
		</g>
	</g>
	<g>
		<g>
			<path style="fill:#2F2166;" d="M504.553,270.938l0.461,0.519l-2.195,1.952c-0.656,0.579-0.717,1.591-0.141,2.244l1.552,1.764
				c0.402,0.465,0.604,1.05,0.562,1.661c-0.039,0.609-0.315,1.167-0.775,1.572l-1.465,1.282c-0.323,0.282-0.516,0.673-0.541,1.104
				c-0.025,0.432,0.12,0.846,0.408,1.163l1.399,1.546c0.427,0.477,0.635,1.089,0.581,1.725c-0.053,0.628-0.365,1.213-0.861,1.604
				l-0.996,0.788c-0.367,0.288-0.586,0.718-0.605,1.185c-0.02,0.469,0.165,0.916,0.509,1.233l2.023,1.885l-0.473,0.505l-2.025-1.881
				c-0.49-0.455-0.753-1.103-0.725-1.767c0.028-0.668,0.343-1.289,0.868-1.702l0.996-0.789c0.35-0.274,0.564-0.673,0.6-1.12
				c0.039-0.443-0.107-0.869-0.404-1.203l-1.401-1.547c-0.411-0.455-0.62-1.049-0.585-1.664c0.038-0.617,0.313-1.178,0.775-1.589
				l1.467-1.28c0.322-0.28,0.512-0.671,0.542-1.094c0.026-0.427-0.114-0.838-0.394-1.158l-1.551-1.766
				c-0.828-0.941-0.737-2.384,0.201-3.22L504.553,270.938z"/>
		</g>
	</g>
	<g>
		<g>
			<path style="fill:#FE9800;" d="M69.055,281.928c0.021-1.389,1.167-2.498,2.555-2.478c1.386,0.023,2.5,1.165,2.478,2.554
				c-0.021,1.385-1.167,2.498-2.554,2.478C70.142,284.459,69.035,283.313,69.055,281.928z M73.395,281.992
				c0.016-1.005-0.791-1.836-1.798-1.853c-1.003-0.015-1.838,0.792-1.854,1.799c-0.013,1.005,0.795,1.837,1.802,1.85
				C72.549,283.804,73.379,283,73.395,281.992z"/>
		</g>
	</g>
	<g>
		<g>
			<path style="fill:#2F2166;" d="M42.174,280.238l0.518-0.462l1.957,2.192c0.58,0.654,1.592,0.713,2.244,0.137l1.761-1.556
				c0.464-0.403,1.049-0.606,1.66-0.564c0.609,0.038,1.167,0.313,1.573,0.772l1.285,1.463c0.283,0.322,0.674,0.515,1.106,0.539
				c0.432,0.024,0.846-0.122,1.162-0.41l1.544-1.402c0.476-0.428,1.087-0.637,1.724-0.585c0.628,0.052,1.213,0.363,1.604,0.858
				l0.79,0.995c0.289,0.367,0.719,0.585,1.186,0.603c0.469,0.02,0.916-0.166,1.232-0.511l1.881-2.027l0.506,0.472l-1.877,2.029
				c-0.454,0.49-1.101,0.755-1.766,0.729c-0.668-0.027-1.289-0.341-1.703-0.865l-0.791-0.994c-0.275-0.35-0.674-0.563-1.121-0.599
				c-0.443-0.038-0.869,0.11-1.202,0.407l-1.545,1.404c-0.454,0.411-1.048,0.621-1.663,0.588c-0.617-0.037-1.178-0.311-1.59-0.772
				l-1.283-1.465c-0.28-0.321-0.672-0.511-1.095-0.54c-0.427-0.025-0.838,0.115-1.157,0.396l-1.763,1.554
				c-0.94,0.83-2.383,0.742-3.221-0.194L42.174,280.238z"/>
		</g>
	</g>
</g>
</svg>
